<?xml version="1.0" encoding="utf-8"?>
<!-- Generator: Adobe Illustrator 18.1.1, SVG Export Plug-In . SVG Version: 6.00 Build 0)  -->
<svg version="1.1" id="Layer_1" xmlns="http://www.w3.org/2000/svg" xmlns:xlink="http://www.w3.org/1999/xlink" x="0px" y="0px"
	 viewBox="-196.9 396 393.8 917.9" enable-background="new -196.9 396 393.8 917.9" xml:space="preserve">
<g>
	<path d="M-109.2,1097.1c-12.9,0-24.8,10.7-24.8,24.8c0,12.9,10.7,24.8,24.8,24.8s24.8-10.7,24.8-24.8
		C-84.5,1109-94.9,1097.1-109.2,1097.1z"/>
	<path d="M118.7,396H-119c-43.8,0-77.9,35.5-77.9,77.9v636.5c0,43.8,35.5,77.9,77.9,77.9h238c43.8,0,77.9-35.5,77.9-77.9V473.8
		C198,431.5,162.5,396,118.7,396z M-0.1,1159.6c-21.2,0-37.7-16.5-37.7-37.7s16.5-37.7,37.7-37.7s37.7,16.5,37.7,37.7
		S21.1,1159.6-0.1,1159.6z M171.9,1058.3H-171V454.9h342.9V1058.3L171.9,1058.3z"/>
</g>
<rect x="-171" y="454.9" fill="#FFFFFF" width="342.9" height="603.4"/>
<circle fill="#FFFFFF" cx="0" cy="1121.9" r="38.3"/>
<circle cx="0.4" cy="1121.9" r="27.7"/>
<rect x="-27.2" y="1188.3" fill="#FFFFFF" width="54.4" height="125.6"/>
<path id="path2999" d="M-4.5,1201.3l23.1,0.1l-15,35.1h14.5l-34.8,64.4l12.5-44.5h-13.5L-4.5,1201.3z"/>
</svg>
