<?xml version="1.0" encoding="utf-8"?>
<!-- Generator: Adobe Illustrator 18.1.1, SVG Export Plug-In . SVG Version: 6.00 Build 0)  -->
<svg version="1.1" id="Layer_1" xmlns="http://www.w3.org/2000/svg" xmlns:xlink="http://www.w3.org/1999/xlink" x="0px" y="0px"
	 viewBox="0 246 612 254" enable-background="new 0 246 612 254" xml:space="preserve">
<g>
	<polygon fill="#A7A9AC" points="206.115,383.075 209.22,383.075 209.22,389.042 206.115,389.042 	"/>
	<polygon fill="#A7A9AC" points="208.611,386.12 211.473,386.12 211.473,389.103 208.611,389.103 	"/>
	<polygon fill="#A7A9AC" points="211.96,359.269 219.875,359.269 219.875,361.217 211.96,361.217 	"/>
	<polygon fill="#A7A9AC" points="222.493,374.064 227.79,374.064 227.79,376.682 222.493,376.682 	"/>
	<polygon fill="#A7A9AC" points="239.966,367.062 243.143,367.062 243.143,373.698 239.966,373.698 	"/>
	<polygon fill="#A7A9AC" points="182.779,363.987 184.93,363.987 184.93,375.858 182.779,375.858 	"/>
	<polygon fill="#A7A9AC" points="87.193,367.578 84.041,367.578 84.041,368.882 87.193,368.882 	"/>
	<polygon fill="#A7A9AC" points="89.692,350.406 95.996,350.406 95.996,353.015 89.692,353.015 	"/>
	<polygon fill="#A7A9AC" points="94.691,347.363 94.366,347.363 94.366,351.819 94.691,351.819 	"/>
	<polygon fill="#A7A9AC" points="113.276,368.664 117.841,368.664 117.841,385.185 113.276,385.185 	"/>
	<polygon fill="#A7A9AC" points="116.754,378.446 121.645,378.446 121.645,387.249 116.754,387.249 	"/>
	<polygon fill="#6D6E71" points="81.324,330.191 73.825,330.191 73.825,332.8 81.324,332.8 	"/>
	<polygon fill="#A7A9AC" points="30.088,378.68 39.28,378.68 39.28,399.72 30.088,399.72 	"/>
	<polygon fill="#A7A9AC" points="41.732,385.421 50.719,385.421 50.719,408.3 41.732,408.3 	"/>
	<polygon fill="#A7A9AC" points="394.657,319.808 398.086,319.808 398.086,321.265 394.657,321.265 	"/>
	<polygon fill="#A7A9AC" points="453.151,326.677 456.995,326.677 456.995,328.342 453.151,328.342 	"/>
	<polygon fill="#A7A9AC" points="455.68,326.196 460.823,326.196 460.823,327.921 455.68,327.921 	"/>
	<polygon fill="#A7A9AC" points="463.895,323.907 463.707,323.907 463.707,328.297 463.895,328.297 	"/>
	<polygon fill="#A7A9AC" points="431.748,349.053 438.19,349.053 438.19,352.382 431.748,352.382 	"/>
	<polygon fill="#A7A9AC" points="332.808,377.915 344.633,377.915 344.633,403.461 332.808,403.461 	"/>
	<polygon fill="#A7A9AC" points="334.325,356.615 331.141,356.615 331.141,359.116 334.325,359.116 	"/>
	<polygon fill="#6D6E71" points="314.639,308.386 319.625,308.386 319.625,310.079 314.639,310.079 	"/>
	<polygon fill="#6D6E71" points="327.432,307.915 322.635,307.915 322.635,311.396 327.432,311.396 	"/>
	<polygon fill="#6D6E71" points="342.672,309.797 354.054,309.797 354.054,311.208 342.672,311.208 	"/>
	<polygon fill="#A7A9AC" points="285.854,357.96 293.38,357.96 293.38,362.381 285.854,362.381 	"/>
	<polygon fill="#A7A9AC" points="282.28,360.312 284.819,360.312 284.819,361.535 282.28,361.535 	"/>
	<path fill="#E3E4E5" d="M372.442,408.425h4.994v0.722h-15.953v-0.13h-0.873V305.588h7.328l0.46-11.733l0.328,8.386h1.308
		l1.048,3.347h1.359L372.442,408.425L372.442,408.425z M503.499,302.505l0.517-30.681l0.517,30.681h2.624v14.361h0.98v92.15h-0.98
		h-2.612h-11.092h-0.978h-2.448v-77.298h2.448v-14.851h0.978v-14.361h3.837l0.524-23.827l0.524,23.827H503.499L503.499,302.505z
		 M452.328,326.821h14.519v82.195h-14.519V326.821L452.328,326.821z M420.667,342.651h11.831v66.365h-11.831V342.651
		L420.667,342.651z M393.576,320.13h11.832v88.887h-11.832V320.13L393.576,320.13z M325.617,357.596h10.245v51.42h-10.245V357.596
		L325.617,357.596z M262.161,380.008h3.416v-15.709h7.285v-3.643v-20.945h10.245v20.945h5.919v48.36h-5.919h-1.366h-3.415h-5.464
		h-7.285h-3.416V380.008L262.161,380.008z M248.274,345.858h11.839v63.158h-11.839V345.858L248.274,345.858z M233.475,370.024h7.514
		V375v34.016h-7.514h-12.521h-9.789V375v-15.482h9.789V375h12.521V370.024L233.475,370.024z M183.844,356.786h19.124v52.23h-19.124
		V356.786L183.844,356.786z M162.671,332.426h17.986v76.59h-17.986V332.426L162.671,332.426z M136.034,325.14h12.977v83.876h-12.977
		V325.14L136.034,325.14z M88.224,350.981h17.758v58.035h-8.879h-8.879h-8.879v-40.753h8.879V350.981L88.224,350.981z"/>
	<path fill="#9C9D9F" d="M587.267,409.015h8.387h1.279h3.754h0.878h2.637v-9.097h-3.514v-2.641h-3.754v2.641v2.401h-1.279v-8.722
		h-8.387v8.722V409.015L587.267,409.015z M16.928,354.679h1.644v4.933h-3.701v49.403h3.701h13.635h3.699v-49.403h-3.699v-4.933
		h1.644v-1.507H16.928V354.679L16.928,354.679z M65.302,409.015h18.051v-77.882H65.302V409.015L65.302,409.015z M134.592,347.216
		v-1.423h-2.277v1.423H127.5v4.839h-7.543v56.96h1.423h20.471h1.424v-51.978h-1.424v-4.982h-7.259V347.216L134.592,347.216z
		 M155.397,409.015h18.052v-60.66h-18.052V409.015L155.397,409.015z M184.408,409.015h4.981v-36.322h-4.981v-4.412h-7.235v4.412
		v36.322H184.408L184.408,409.015z M200.801,409.015h7.234v-32.052h-7.234V409.015L200.801,409.015z M216.457,409.015h7.235v-19.384
		h-7.235V409.015L216.457,409.015z M224.997,409.015h11.077v-73.755h-11.077V409.015L224.997,409.015z M258.018,409.015h11.077
		v-26.216h-11.077V409.015L258.018,409.015z M287.48,409.015h9.512v-32.336h-9.512V409.015L287.48,409.015z M308.687,409.015h21.61
		V308.591h-21.61L308.687,409.015L308.687,409.015z M362.891,409.015h4.839v-20.239h-4.839v-78.758h-21.609v98.997h4.839H362.891
		L362.891,409.015z M443.381,392.63v-41.774h-13.086v41.774h-3.9v16.385h18.188v-16.385L443.381,392.63L443.381,392.63z
		 M468.993,391.247v-9.563h-10.512v9.563h-7.676v17.769h18.188v-9.562V391.247L468.993,391.247z M470.166,409.015h18.482v-53.19
		h-1.404v-2.007h-0.733l-0.996-0.996l-0.995,0.996h-0.733v2.007h-2.65v-2.007h-0.733l-0.995-0.996l-0.996,0.996h-0.732v2.007h-2.651
		v-2.007h-0.732l-0.996-0.996l-0.996,0.996h-0.732v2.007h-1.404L470.166,409.015L470.166,409.015z M522.9,360.7v-14.755h-13.305
		V360.7h-6.494v48.316h21.381V360.7H522.9L522.9,360.7z M564.657,397.795v-8.722h-6.071v8.722h-1.357v-6.241h-6.071v6.241h-2.476
		v8.057h20.769v-8.057H564.657L564.657,397.795z"/>
	<polygon fill="#666766" points="57.578,298.218 71.909,293.101 74.585,293.101 74.585,301.67 75.672,301.67 75.672,328.619 
		75.672,338.259 75.672,352.584 75.672,356.501 75.672,379.534 75.672,389.173 75.672,407.415 45.379,407.415 45.379,356.501 
		48.42,356.501 48.42,338.259 51.627,338.259 51.627,328.619 56.491,328.619 56.491,301.67 57.578,301.67 	"/>
	<polygon fill="#666766" points="124.214,375.956 132.731,372.516 134.642,369.027 135.519,369.027 137.431,372.516 
		145.947,375.956 145.947,377.298 144.159,377.298 144.159,383.736 196.393,383.736 196.393,386.082 201.234,386.082 
		201.234,407.415 92.691,407.415 92.691,386.082 97.532,386.082 97.532,383.736 100.172,383.736 100.172,349.116 101.346,349.116 
		101.346,343.12 102.666,343.12 102.666,336.226 103.819,336.226 103.819,333.585 104.967,333.585 107.651,328.687 108.528,328.687 
		111.211,333.585 112.36,333.585 112.36,336.226 113.512,336.226 113.512,343.12 114.833,343.12 114.833,349.116 116.006,349.116 
		116.006,383.736 126.003,383.736 126.003,377.298 124.214,377.298 	"/>
	<polygon fill="#666766" points="204.039,388.035 214.767,388.035 214.767,407.415 204.039,407.415 	"/>
	<polygon fill="#666766" points="229.714,393.26 243.165,393.26 243.165,400.403 243.165,407.415 229.714,407.415 211.258,407.415 
		211.258,400.403 229.714,400.403 	"/>
	<polygon fill="#666766" points="242.905,362.751 247.053,355.181 248.468,355.181 252.615,362.751 254.198,362.751 
		254.198,372.315 261.555,372.315 261.555,407.415 233.967,407.415 233.967,372.315 241.323,372.315 241.323,362.751 	"/>
	<polygon fill="#666766" points="265.136,390.513 277,390.513 277,407.415 265.136,407.415 	"/>
	<polygon fill="#666766" points="342.754,371.055 344.122,371.055 346.726,363.862 348.242,363.862 350.847,371.055 
		352.213,371.055 352.213,374.832 352.776,376.389 354.643,376.389 354.643,407.415 340.324,407.415 340.324,376.389 
		342.192,376.389 342.754,374.834 	"/>
	<polygon fill="#666766" points="400.776,269.126 423.357,269.126 423.357,270.638 424.865,270.638 424.865,272.188 
		426.528,272.188 426.528,273.996 429.077,273.996 429.077,394.301 430.974,394.301 430.974,400.638 430.974,403.375 
		441.83,403.375 441.83,407.415 430.974,407.415 429.077,407.415 422.418,407.415 400.776,407.415 378.206,407.415 364.811,407.415 
		364.811,400.638 364.811,388.583 367.496,388.583 367.496,317.766 369.815,317.766 369.815,313.918 371.015,313.918 
		371.015,311.072 371.595,311.072 377.083,301.663 377.704,301.663 378.194,301.663 378.194,291.26 378.976,291.26 378.976,301.694 
		384.445,311.072 385.023,311.072 385.023,313.918 386.224,313.918 386.224,317.766 388.543,317.766 388.543,400.638 
		400.776,400.638 400.776,275.658 400.776,274.108 400.776,273.996 400.776,272.597 400.776,272.188 400.776,270.638 	"/>
	<polygon fill="#666766" points="448.497,397.965 464.247,397.965 464.247,407.415 448.497,407.415 441.224,407.415 
		434.508,407.415 434.508,368.787 436.096,368.787 436.096,365.368 444.346,365.368 444.346,368.787 448.497,368.787 	"/>
	<polygon fill="#666766" points="486.029,366.223 522.482,366.223 522.482,407.415 486.029,407.415 	"/>
	<polygon fill="#666766" points="549.718,400.472 552.049,400.472 552.049,401.822 557.695,401.822 557.695,404.153 
		571.435,404.153 571.435,346.724 576.469,346.724 576.469,344.27 588.372,344.27 588.372,346.724 592.054,346.724 592.054,404.153 
		596.348,404.153 596.348,406.484 611.073,406.484 611.073,407.342 596.348,407.342 592.054,407.342 571.435,407.342 
		562.846,407.342 549.718,407.342 548.121,407.342 539.656,407.342 525.297,407.342 525.297,345.374 539.656,345.374 
		539.656,351.51 549.718,351.51 	"/>
	<polygon fill="#666766" points="6.291,390.899 43.895,390.899 43.895,407.415 6.291,407.415 	"/>
	<polygon fill="#666766" points="320.976,381.045 335.345,381.045 335.345,383.446 336.728,383.446 336.728,407.415 
		320.976,407.415 306.178,407.415 291.965,407.415 288.365,407.415 278.553,407.415 278.553,391.393 288.365,391.393 
		288.365,334.495 294.699,334.495 294.699,295.422 294.699,293.673 298.081,293.673 298.081,269.738 299.879,269.738 
		300.357,260.576 300.808,269.738 303.045,269.738 303.534,251.427 303.997,269.738 307.307,269.738 307.307,269.63 306.565,269.63 
		307.068,257.997 307.497,268.515 309.93,268.515 310.246,266.629 310.721,269.63 310.099,269.63 310.099,269.738 310.956,269.738 
		310.956,293.673 313.247,293.673 313.247,295.422 315.865,295.422 315.865,334.495 320.976,334.495 	"/>
	<path fill="#666766" d="M41.73,400.658v6.495h1.485v-6.495h41.347v6.495h2.307v-6.495h112.2v6.495h2.805v-6.495h6.297v6.495h0.922
		v-6.495H241v6.495h1.292v-6.495h18.991v6.495h1.689v-6.495h24.453v6.495h2.454v-6.495h67.97v6.495h1.539v-6.495h8.421v6.495h1.477
		v-5.281v-1.215h26.267v1.215h2.812v-1.215h24.417v1.215v2.213h8.777v3.068h0.787v-6.495h29.738v6.495h8.6v-6.495h49.635v6.495
		h2.815v-6.495h26.754v1.174h5.644v2.332h7.301v-3.505h29.265v3.505h2.087v2.332h3.263v-4.377h9.597v4.377h1.865v0.659h3.067v10.207
		h0.003v12.618c-202.695,0-405.947,0.148-608.86,0.148v-12.766H3.12v-10.207h1.005v-6.495L41.73,400.658L41.73,400.658z"/>
	<polygon fill="#A7A9AC" points="272.496,340.745 273.908,340.745 273.908,346.766 272.496,346.766 	"/>
	<polygon fill="#A7A9AC" points="272.496,347.424 273.908,347.424 273.908,353.444 272.496,353.444 	"/>
	<polygon fill="#A7A9AC" points="272.496,354.103 273.908,354.103 273.908,360.124 272.496,360.124 	"/>
	<polygon fill="#231F20" points="421.52,268.797 400.941,268.797 400.941,270.332 421.52,270.332 	"/>
	<polygon fill="#6D6E71" points="431.074,350.31 442.365,350.31 442.365,352.08 431.074,352.08 	"/>
	<polygon fill="#6D6E71" points="441.597,350.002 438.986,350.002 438.986,350.771 441.597,350.771 	"/>
	<polygon fill="#231F20" points="435.847,366.189 436.522,366.189 436.522,369.927 435.847,369.927 	"/>
	<polygon fill="#231F20" points="438.654,365.085 442.6,365.085 442.6,366.225 438.654,366.225 	"/>
	<polygon fill="#231F20" points="444.805,368.574 447.932,368.574 447.932,369.002 444.805,369.002 	"/>
	<polygon fill="#A7A9AC" points="137.035,323.865 136.883,323.865 136.883,326.354 137.035,326.354 	"/>
	<polygon fill="#A7A9AC" points="147.989,323.51 147.786,323.51 147.786,325.948 147.989,325.948 	"/>
	<polygon fill="#A7A9AC" points="136.934,324.78 144.692,324.78 144.692,326.354 136.934,326.354 	"/>
	<polygon fill="#A7A9AC" points="163.356,331.994 169.746,331.994 169.746,334.94 163.356,334.94 	"/>
	<polygon fill="#A7A9AC" points="179.991,331.384 178.621,331.384 178.621,333.009 179.991,333.009 	"/>
	<polygon fill="#A7A9AC" points="175.122,331.79 178.977,331.79 178.977,333.009 175.122,333.009 	"/>
	<polygon fill="#6D6E71" points="157.169,347.996 164.624,347.996 164.624,349.723 157.169,349.723 	"/>
	<polygon fill="#6D6E71" points="163.812,347.539 169.189,347.539 169.189,349.113 163.812,349.113 	"/>
	<polygon fill="#6D6E71" points="184.849,372.443 188.705,372.443 188.705,373.337 184.849,373.337 	"/>
	<polygon fill="#6D6E71" points="176.652,368.947 178.234,368.947 178.234,371.386 176.652,371.386 	"/>
	<polygon fill="#6D6E71" points="176.651,372.768 178.234,372.768 178.234,375.207 176.651,375.207 	"/>
	<polygon fill="#6D6E71" points="176.651,376.589 178.234,376.589 178.234,379.028 176.651,379.028 	"/>
	<polygon fill="#6D6E71" points="176.652,380.411 178.234,380.411 178.234,382.849 176.652,382.849 	"/>
	<polygon fill="#A7A9AC" points="201.894,356.06 195.238,356.06 195.238,358.012 201.894,358.012 	"/>
	<polygon fill="#A7A9AC" points="190.855,356.385 197.551,356.385 197.551,357.767 190.855,357.767 	"/>
	<polygon fill="#6D6E71" points="217.41,389.127 220.718,389.127 220.718,390.081 217.41,390.081 	"/>
	<polygon fill="#6D6E71" points="201.369,376.573 207.234,376.573 207.234,378.381 201.369,378.381 	"/>
	<polygon fill="#6D6E71" points="225.336,335.072 227.296,335.072 227.296,335.708 225.336,335.708 	"/>
	<polygon fill="#6D6E71" points="233.74,335.072 235.7,335.072 235.7,335.708 233.74,335.708 	"/>
	<polygon fill="#A7A9AC" points="248.508,345.645 251.166,345.645 251.166,346.302 248.508,346.302 	"/>
</g>
<g>
	<path fill="#FFCD00" d="M87.419,476.75c-3.159,1.606-5.729,1.927-7.87,1.927c-6.585,0-11.03-2.249-14.028-5.193
		c-3.212-3.105-5.568-7.817-5.568-13.546c0-5.622,2.356-10.333,5.568-13.439c3.159-3.052,7.764-5.14,13.332-5.14
		c2.356,0,5.086,0.482,8.566,1.981v9.53c-1.82-1.927-4.551-3.801-8.352-3.801c-2.999,0-5.408,0.964-7.282,2.784
		c-1.981,1.927-3.373,4.819-3.373,8.245c0,3.694,1.499,6.318,3.105,7.871c0.75,0.75,3.32,2.998,7.71,2.998
		c2.142,0,5.033-0.589,8.192-3.694L87.419,476.75L87.419,476.75z"/>
	<path fill="#FFCD00" d="M102.249,455.762h14.242v-13.6h8.245v35.712h-8.245v-15.152h-14.242v15.152h-8.245v-35.712h8.245V455.762z"
		/>
	<path fill="#FFCD00" d="M140.958,442.162v35.712h-8.245v-35.712H140.958z"/>
	<path fill="#FFCD00" d="M174.742,476.75c-3.159,1.606-5.729,1.927-7.87,1.927c-6.585,0-11.03-2.249-14.028-5.193
		c-3.212-3.105-5.568-7.817-5.568-13.546c0-5.622,2.356-10.333,5.568-13.439c3.159-3.052,7.764-5.14,13.332-5.14
		c2.356,0,5.086,0.482,8.566,1.981v9.53c-1.82-1.927-4.551-3.801-8.352-3.801c-2.999,0-5.408,0.964-7.282,2.784
		c-1.981,1.927-3.373,4.819-3.373,8.245c0,3.694,1.499,6.318,3.105,7.871c0.75,0.75,3.32,2.998,7.71,2.998
		c2.142,0,5.033-0.589,8.192-3.694L174.742,476.75L174.742,476.75z"/>
	<path fill="#FFCD00" d="M202.315,471.128h-13.492l-2.731,6.746h-8.567l14.403-35.712h7.549l14.081,35.712h-8.567L202.315,471.128z
		 M200.066,464.811l-4.391-11.993l-4.444,11.993H200.066z"/>
	<path fill="#FFCD00" d="M233.69,458.385h17.722v0.375c0,4.337-1.553,10.923-5.515,15.045c-3.962,4.123-8.513,4.872-12.743,4.872
		c-4.283,0-8.888-0.696-13.064-4.979c-2.088-2.142-5.247-6.478-5.247-13.6c0-5.836,2.142-10.494,5.14-13.546
		c4.39-4.551,9.798-5.193,14.028-5.193c2.945,0,6.693,0.482,10.012,2.677c2.409,1.606,4.497,4.123,5.782,6.372l-7.442,4.016
		c-0.696-1.392-1.767-2.838-3.159-3.855c-1.606-1.178-3.427-1.713-5.461-1.713c-3.266,0-5.676,1.071-7.389,2.891
		c-1.981,2.088-3.052,5.14-3.052,8.459c0,4.069,1.499,6.693,2.999,8.192c2.088,2.142,4.497,2.784,7.228,2.784
		c3.534,0,5.408-1.231,6.211-1.927c0.268-0.214,1.874-1.606,2.57-4.23h-8.62L233.69,458.385L233.69,458.385z"/>
	<path fill="#FFCD00" d="M289.211,446.553c3.373,3.266,5.568,7.978,5.568,13.492c0,4.765-1.714,9.637-5.568,13.385
		c-3.32,3.212-7.817,5.247-13.814,5.247c-6.693,0-11.243-2.677-13.921-5.247c-3.427-3.212-5.568-8.031-5.568-13.278
		c0-5.14,2.302-10.334,5.515-13.546c2.409-2.409,6.853-5.247,13.974-5.247C280.965,441.359,285.624,443.073,289.211,446.553z
		 M267.527,452.014c-1.553,1.499-3.159,4.123-3.159,8.085c0,3.266,1.071,5.889,3.266,8.031c2.302,2.195,4.872,2.945,7.656,2.945
		c3.641,0,6.211-1.339,7.924-3.052c1.392-1.339,3.105-3.855,3.105-7.978c0-3.694-1.499-6.425-3.105-8.031
		c-1.767-1.713-4.605-3.052-7.871-3.052C272.238,448.962,269.454,450.087,267.527,452.014z"/>
</g>
<g>
	<path fill="#FFCD00" d="M340.303,442.756h-7.266v-9.943h19.045v51.016h-11.779V442.756z"/>
	<path fill="#FFCD00" d="M399.044,442.756h-17.209l-1.377,6.807c1.3-0.229,2.906-0.382,4.207-0.382
		c5.736,0,10.173,2.065,13.003,4.972c2.295,2.295,4.666,6.272,4.666,12.314c0,6.578-2.83,10.785-5.201,13.156
		c-4.666,4.589-10.249,5.354-15.45,5.354c-4.819,0-10.555-0.612-16.98-5.583l2.677-10.938c1.377,1.53,3.289,3.212,4.895,4.207
		c2.142,1.377,4.666,2.218,7.725,2.218c2.677,0,5.431-0.612,7.266-2.065c1.606-1.224,2.983-3.442,2.983-6.425
		c0-3.059-1.377-4.895-2.601-5.966c-0.612-0.535-3.136-2.677-8.49-2.677c-4.283,0-7.878,1.3-10.402,2.677l5.201-27.611h25.087
		V442.756z"/>
	<path fill="#FFCD00" d="M417.477,472.05l10.02,0.535l-11.549,21.34l-6.884-0.306L417.477,472.05z"/>
	<path fill="#FFCD00" d="M437.516,448.11c0.459-4.283,2.371-8.796,5.048-11.549c3.748-3.901,8.719-4.819,12.926-4.819
		c6.272,0,10.785,1.912,13.385,4.513c2.142,2.065,3.901,5.431,3.901,10.402c0,2.524-0.459,4.742-2.065,6.96
		c-1.071,1.53-2.371,2.524-3.824,3.212c2.142,0.765,4.436,2.218,5.813,4.13c1.53,2.065,2.371,5.278,2.371,8.031
		c0,3.901-1.53,8.337-5.125,11.626c-4.36,3.977-9.331,4.436-13.462,4.436c-4.972,0-10.402-0.765-14.915-5.278
		c-2.906-2.983-5.125-7.496-5.66-12.62h11.779c0.153,1.989,1.071,4.36,2.448,5.736c1.224,1.224,3.212,2.065,5.66,2.065
		c1.989,0,3.901-0.612,5.125-1.759c1.224-1.147,2.065-3.136,2.065-5.201c0-2.142-0.994-3.901-2.218-4.895
		c-1.836-1.453-4.513-1.606-6.272-1.606h-0.918v-8.108h0.688c0.688,0,3.442-0.076,5.125-1.453c1.071-0.918,1.912-2.524,1.912-4.589
		c0-1.759-0.688-3.212-1.683-4.13c-0.918-0.841-2.448-1.53-4.36-1.53c-1.989,0-3.595,0.688-4.589,1.683
		c-1.071,1.147-1.759,3.136-1.836,4.742H437.516z"/>
	<path fill="#FFCD00" d="M516.525,479.699c-2.983,2.906-7.419,5.278-13.691,5.278c-6.119,0-10.479-2.295-13.538-5.278
		c-4.972-4.895-7.343-12.62-7.343-21.34c0-8.796,2.371-16.597,7.343-21.416c3.059-2.983,7.419-5.278,13.538-5.278
		c6.272,0,10.708,2.371,13.691,5.278c4.972,4.819,7.343,12.62,7.343,21.416C523.868,467.079,521.497,474.804,516.525,479.699z
		 M498.169,443.674c-3.748,3.671-4.283,11.014-4.283,14.609c0,3.977,0.688,11.167,4.283,14.685c1.377,1.3,2.754,1.912,4.742,1.912
		c1.989,0,3.365-0.612,4.742-1.912c3.595-3.518,4.283-10.708,4.283-14.685c0-3.595-0.535-10.938-4.283-14.609
		c-1.377-1.3-2.754-1.912-4.742-1.912C500.922,441.762,499.546,442.374,498.169,443.674z"/>
	<path fill="#FFCD00" d="M536.411,480.693c-3.901-3.518-4.895-7.725-4.895-11.09c0-4.36,1.912-7.113,3.442-8.719
		c1.683-1.759,4.13-3.136,6.348-3.824c-1.3-0.535-3.059-1.453-4.666-3.136c-2.295-2.371-3.136-4.972-3.136-8.108
		c0-4.283,1.606-7.343,3.748-9.484c3.748-3.824,8.643-4.666,13.232-4.666c4.436,0,9.331,0.841,13.079,4.666
		c2.142,2.142,3.748,5.201,3.748,9.484c0,3.136-0.841,5.736-3.136,8.108c-1.606,1.683-3.365,2.601-4.666,3.136
		c2.218,0.688,4.666,2.065,6.348,3.824c1.53,1.606,3.442,4.36,3.442,8.719c0,3.365-0.994,7.572-4.895,11.09
		c-4.513,4.054-9.255,4.283-14.073,4.283C545.742,484.977,540.923,484.747,536.411,480.693z M545.436,463.637
		c-1.224,1.224-1.989,3.289-1.989,5.048c0,1.836,0.612,3.824,1.989,5.125c1.3,1.224,3.212,1.836,4.972,1.836
		c1.759,0,3.671-0.612,4.972-1.836c1.147-1.071,1.989-2.983,1.989-5.201c0-2.142-0.841-3.901-1.989-4.972
		c-1.224-1.224-3.136-1.836-5.125-1.836S546.507,462.566,545.436,463.637z M545.895,442.068c-1.3,1.224-1.912,2.677-1.912,4.36
		c0,2.142,0.994,3.518,1.912,4.36c1.147,0.994,2.677,1.683,4.513,1.683c1.606,0,3.136-0.459,4.436-1.683
		c1.3-1.224,1.912-2.601,1.912-4.36c0-2.524-1.377-3.901-1.912-4.436c-1.071-0.918-2.601-1.606-4.436-1.606
		C548.801,440.385,547.272,440.844,545.895,442.068z"/>
</g>
</svg>
