<?xml version="1.0" encoding="utf-8"?>
<!-- Generator: Adobe Illustrator 18.1.1, SVG Export Plug-In . SVG Version: 6.00 Build 0)  -->
<svg version="1.1" id="Layer_1" xmlns="http://www.w3.org/2000/svg" xmlns:xlink="http://www.w3.org/1999/xlink" x="0px" y="0px"
	 viewBox="0 207.573 612 263.427" enable-background="new 0 207.573 612 263.427" xml:space="preserve">
<g>
	<g>
		<polygon fill="#756525" points="553.356,373.146 547.459,373.146 547.459,365.365 544.51,365.365 544.51,373.146 535.791,373.146 
			535.791,352.096 525.713,352.096 525.713,389.278 535.791,389.278 535.791,388.953 553.356,388.953 		"/>
		<rect x="429.883" y="348.042" fill="#756525" width="7.003" height="36.857"/>
		<rect x="276.305" y="299.366" fill="#756525" width="19.906" height="95.106"/>
		<polygon fill="#756525" points="302.439,392.806 302.439,377.075 318.01,377.075 320.009,379.074 321.902,377.18 325.058,380.336 
			328.32,380.336 328.32,313.529 329.583,313.529 329.583,302.588 341.997,302.588 341.997,299.642 346.626,299.642 
			346.626,283.861 347.468,283.019 347.468,301.536 360.934,301.536 362.828,309.742 362.828,323.629 364.301,323.629 
			372.296,326.365 372.296,334.15 372.296,367.816 373.559,367.816 373.559,334.781 378.609,334.781 378.609,331.204 
			390.813,331.204 392.706,334.36 399.65,334.36 399.65,380.231 403.438,380.231 403.438,392.806 		"/>
		<polygon fill="#756525" points="434.95,388.724 434.95,382.684 438.738,382.684 438.738,353.708 441.707,353.708 441.707,333.231 
			445.086,333.231 445.086,327.395 452.97,327.395 452.97,328.009 454.301,328.009 454.301,332.514 455.939,332.514 
			455.939,327.292 462.185,327.292 462.185,324.323 466.076,324.323 466.076,322.685 471.194,322.685 471.194,325.04 
			483.686,325.04 483.686,328.214 487.372,328.214 487.372,375.619 489.522,375.619 489.522,344.698 492.082,344.698 
			492.082,337.429 493.106,337.429 493.106,334.664 497.303,323.914 502.73,334.357 502.73,336.917 504.675,336.917 
			504.675,344.801 506.211,346.746 506.211,391.079 		"/>
		<polygon fill="#756525" points="38.362,393.699 38.362,326.39 45.289,325.336 45.439,323.83 51.011,323.077 58.089,323.679 
			58.389,325.938 64.413,325.938 64.413,384.363 65.166,383.61 65.166,333.918 67.424,333.918 67.424,332.112 69.908,332.112 
			69.908,333.975 70.586,333.975 70.586,331.998 73.014,331.998 73.014,334.088 77.757,334.088 77.757,369.606 83.065,369.606 
			83.084,394.151 		"/>
		<polygon fill="#756525" points="241.989,385.141 242.849,297.416 243.647,297.17 243.463,296.064 242.972,296.064 
			242.972,289.245 244.385,289.245 244.569,288.447 251.879,288.447 254.398,289.184 256.794,289.184 256.794,252.878 
			268.466,245.935 275.592,245.935 275.776,246.427 276.82,246.427 279.278,255.396 279.278,260.249 279.708,261.847 
			279.708,388.581 		"/>
		<polygon fill="#756525" points="137.8,375.23 137.8,316.337 143.206,305.197 146.646,305.197 148.12,305.197 148.858,292.091 
			148.858,305.525 151.479,305.525 160.406,316.747 161.472,316.664 161.472,340.337 166.55,342.958 171.465,342.958 
			173.84,344.514 173.84,317.729 182.44,313.06 184.652,313.06 184.652,310.931 186.618,310.03 189.566,310.767 189.566,312.979 
			197.512,316.092 197.676,317.074 200.051,317.975 200.051,384.731 136.489,384.731 		"/>
		<path fill="#756525" d="M204.324,382.807l-0.78-72.069l1.092-1.093v-9.671c0,0,1.17-0.468,1.092-0.702s0-12.324,0-12.324
			l1.56-1.56h3.9v-6.162l1.95-1.56h3.588v-1.248h1.482v-0.702h2.028v-2.417l0.195-0.196v-3.939h0.429v4.056h1.17v2.262h0.858v0.936
			h7.644l0.624,1.638v7.332h4.446l1.17,1.56v11.387l1.014,1.794v8.58l1.17,0.936v74.799L204.324,382.807z"/>
		<polygon fill="#756525" points="394.539,389.658 394.539,296.66 398.776,296.66 398.776,298.04 401.928,298.04 401.928,294.395 
			403.11,294.395 403.11,289.863 403.701,289.271 403.701,278.731 405.179,278.731 405.179,276.17 407.247,273.313 410.4,275.972 
			410.4,278.042 411.286,278.042 411.286,288.09 412.272,289.075 412.272,293.903 413.946,293.903 413.946,297.547 416.606,297.547 
			416.606,307.202 418.479,307.202 418.479,305.921 419.365,305.921 419.365,307.202 420.547,307.202 420.547,305.724 
			421.532,305.724 421.532,391.924 		"/>
		<polygon fill="#756525" points="326.792,360.908 323.68,360.908 323.68,285.879 323.68,270.48 321.099,270.48 321.099,264.091 
			320.485,263.476 320.485,260.282 318.151,260.282 318.151,256.473 315.939,256.473 315.939,253.524 314.465,253.524 
			314.465,251.067 313.606,249.47 313.606,235.586 311.578,233.559 311.312,211.065 311.312,207.573 311.292,209.319 
			311.271,207.573 311.271,211.065 311.005,233.559 308.978,235.586 308.978,249.47 308.118,251.067 308.118,253.524 
			306.643,253.524 306.643,256.473 304.432,256.473 304.432,260.282 302.097,260.282 302.097,263.476 301.483,264.091 
			301.483,270.48 298.902,270.48 298.902,285.879 298.902,360.908 295.79,360.908 295.79,386.136 311.271,387.566 311.271,387.569 
			311.292,387.567 311.312,387.569 311.312,387.566 326.792,386.136 		"/>
	</g>
	<g>
		<polygon fill="#B59200" points="427.365,392.682 427.734,375.972 434.122,375.235 443.337,375.235 443.337,383.713 444.32,382.73 
			444.32,374.743 449.357,374.743 449.357,373.392 455.623,373.392 455.623,375.112 460.784,375.112 460.784,382.975 
			471.473,382.975 471.473,378.921 476.388,378.921 476.388,381.993 480.565,381.993 480.565,376.095 483.76,373.884 
			486.585,373.884 486.585,380.518 488.306,380.518 488.306,367.126 493.712,367.126 493.712,362.703 503.172,362.703 
			503.172,377.078 503.909,376.341 503.909,356.314 519.882,356.314 519.882,371.549 520.987,371.549 520.987,364.914 
			527.008,364.914 527.008,363.194 531.554,363.194 533.888,365.529 533.888,373.146 541.505,373.146 541.505,375.972 
			546.051,375.972 545.683,391.576 		"/>
		<polygon fill="#B59200" points="237.058,391.1 237.058,351.708 231.136,350.215 218.2,350.215 218.2,383.632 214.304,383.632 
			214.304,333.457 197.939,333.457 197.939,388.299 197.939,392.22 		"/>
		<polygon fill="#B59200" points="415.228,391.858 415.228,322.726 428.863,322.726 428.863,391.618 		"/>
		<polygon fill="#B59200" points="370.043,395 370.043,344.257 386.814,344.257 386.814,376.816 390.316,376.816 392.097,381.239 
			392.097,394.14 		"/>
		<polygon fill="#B59200" points="120.822,394.843 120.822,386.493 128.624,386.493 128.624,361.992 132.32,361.718 132.32,360.213 
			133.689,360.35 133.689,355.422 142.997,355.422 142.997,359.528 147.377,359.665 147.377,363.635 156.685,363.635 
			156.685,376.638 165.856,376.638 165.856,373.08 168.182,373.08 174.89,377.048 174.89,378.828 199.801,378.828 199.801,392.79 		
			"/>
		<polygon fill="#B59200" points="265.522,391.754 265.522,327.054 269.093,326.748 269.093,324.809 274.196,324.809 
			274.196,321.85 279.808,321.237 281.339,324.196 281.339,326.544 284.401,326.544 284.401,357.975 287.462,357.975 
			287.462,350.832 298.177,350.832 302.872,353.179 302.872,392.876 266.032,392.876 		"/>
		<polygon fill="#B59200" points="79.234,395.503 79.234,385.872 82.355,385.426 82.355,383.733 86.011,382.93 86.011,381.058 
			88.864,381.058 88.864,382.93 90.558,382.93 90.558,365.543 95.016,365.543 95.016,357.964 101.347,357.964 103.398,358.499 
			103.398,364.295 104.379,364.295 104.379,360.461 106.34,360.282 106.34,358.945 116.951,360.461 118.021,361.531 
			121.231,361.531 121.231,364.206 126.046,364.206 126.046,378.918 124.441,378.918 124.441,394.433 		"/>
		<polygon fill="#B59200" points="309.018,388.023 309.018,365.907 309.816,365.109 309.816,312.584 311.229,312.584 
			311.229,309.513 317.987,308.161 329.29,308.161 329.29,312.093 330.396,312.093 330.396,364.679 331.502,364.679 331.502,392.2 
			309.018,392.692 		"/>
		<polygon fill="#B59200" points="185.963,389.4 185.963,342.056 195.301,342.056 195.301,389.236 		"/>
		<polygon fill="#B59200" points="237.023,393.405 237.023,372.998 239.064,372.998 239.064,365.38 240.696,365.38 240.696,352.592 
			243.145,352.592 243.145,330.417 248.451,325.111 254.028,325.111 259.674,330.757 259.674,356.945 261.103,356.945 
			261.103,393.949 		"/>
		<rect x="398.555" y="355.781" fill="#B59200" width="14.743" height="35.752"/>
		<rect x="332.212" y="378.632" fill="#FFCD00" width="41.648" height="14.743"/>
	</g>
	<rect x="1.429" y="392.687" fill="#1A4268" width="611.119" height="3.512"/>
	<g>
		<path fill="#FFCD00" d="M392.754,376.928h-2.924l-0.344-9.19c0,0-0.001-1.783-1.204-2.88c-1.203-1.098-2.234-1.098-2.234-1.098
			l-0.494-4.513v-0.013l-0.011,0.007l-0.011-0.007v0.013l-0.494,4.513c0,0-1.032,0-2.234,1.098c-1.204,1.097-1.205,2.88-1.205,2.88
			l-0.344,9.19h-2.924v17.694l7.201,0.41v0.002l0.011-0.001l0.011,0.001v-0.002l7.201-0.41L392.754,376.928L392.754,376.928z"/>
		<polygon fill="#FFCD00" points="121.909,394.97 122.073,389.85 129.609,389.944 129.855,373.504 135.26,373.433 135.179,366.957 
			139.52,366.957 147.711,366.957 147.711,374.035 161.881,374.035 161.881,391.958 163.601,391.958 163.601,393.991 		"/>
		<polygon fill="#FFCD00" points="2.657,393.819 2.657,381.137 8.638,381.137 8.638,379.013 10.762,379.013 10.762,393.11 
			23.904,393.11 23.904,364.692 32.481,364.692 32.481,360.206 39.091,360.206 39.091,365.479 44.205,365.479 44.205,392.481 
			49.635,392.481 49.635,378.984 50.894,378.984 50.894,375.836 54.593,375.836 54.593,380.164 55.143,380.164 55.143,370.957 
			58.291,370.957 58.291,369.226 62.147,369.226 62.147,370.957 73.242,370.957 73.242,394.133 2.657,394.133 		"/>
		<polygon fill="#FFCD00" points="448.287,393.283 448.287,391.584 452.682,391.584 452.682,389.386 455.481,389.386 
			455.481,387.088 455.559,378.164 468.769,378.164 469.268,386.189 470.417,385.04 477.76,385.04 477.917,365.359 488.451,365.451 
			488.451,385.39 497.941,385.39 497.941,375.137 500.938,375.137 500.938,376.635 515.66,376.635 515.625,370.948 524.118,370.948 
			524.118,389.986 534.807,389.986 534.807,388.787 534.807,376.502 543.899,376.502 543.899,373.854 545.897,373.854 
			545.897,376.252 556.388,376.252 556.741,389.136 563.482,389.136 564.805,390.46 589.552,390.46 589.545,374.897 597.25,374.897 
			597.326,386.03 607.242,386.03 607.242,393.083 610.439,393.083 610.439,394.781 		"/>
		<polygon fill="#FFCD00" points="243.054,394.912 243.054,357.646 257.082,357.735 257.082,380.7 259.947,380.7 259.947,365.953 
			270.715,365.953 270.715,368.84 273.283,368.84 273.283,387.123 277.432,387.123 277.432,347.283 282.569,347.283 
			282.569,339.253 283.063,339.253 283.063,347.199 286.916,347.199 286.916,392.244 286.916,394.753 		"/>
		<polygon fill="#FFCD00" points="344.362,395.326 344.362,386.588 354.32,386.588 354.32,382.727 361.839,382.727 361.839,385.978 
			364.684,385.978 364.684,390.652 367.122,390.652 367.122,393.904 382.566,393.904 382.566,383.133 396.456,383.133 
			396.456,368.375 411.503,368.375 411.503,383.337 431.065,383.337 431.187,359.501 439.911,359.501 439.911,383.337 
			450.033,383.337 450.033,393.091 		"/>
		<polygon fill="#FFCD00" points="320.428,394.435 320.428,355.911 325.032,355.781 335.089,355.781 335.089,377.363 
			338.118,377.363 338.118,367.524 350.84,367.524 350.84,392.81 350.84,395.085 		"/>
		<polygon fill="#FFCD00" points="371.201,366.869 369.896,365.938 369.896,352.332 368.777,350.655 368.498,343.573 
			365.982,343.573 365.982,336.677 364.399,335.466 364.399,332.67 363.28,331.645 361.521,320.724 361.521,320.649 
			361.515,320.686 361.509,320.649 361.509,320.724 359.75,331.645 358.632,332.67 358.632,335.466 357.048,336.677 
			357.048,343.573 354.532,343.573 354.253,350.655 353.135,352.332 353.135,365.938 351.829,366.869 351.922,393.708 
			361.509,393.987 361.509,393.987 361.515,393.987 361.521,393.987 361.521,393.987 371.107,393.708 		"/>
		<polygon fill="#FFCD00" points="320.13,394.734 320.13,346.013 311.11,346.043 311.11,342.095 303.681,342.142 303.681,345.629 
			300.498,345.629 300.498,369.298 297.314,369.298 297.221,395.579 319.6,395.579 		"/>
		<polygon fill="#FFCD00" points="243.649,394.97 243.805,388.947 234.258,381.485 234.147,360.896 224.133,360.915 
			224.133,385.786 223.265,385.786 223.265,347.613 210.729,347.613 210.15,379.466 202.725,379.466 198.482,379.432 
			198.482,392.194 197.132,392.194 197.132,369.784 194.914,369.784 192.406,371.363 192.406,393.248 190.602,393.248 
			190.602,377.856 185.271,377.856 185.271,393.949 173.195,393.949 164.942,393.774 163.187,394.476 162.221,394.97 		"/>
		<rect x="68.369" y="386.943" fill="#FFCD00" width="23.59" height="8.109"/>
		<rect x="88.764" y="390.629" fill="#FFCD00" width="32.058" height="4.214"/>
		<rect x="108.668" y="379.08" fill="#FFCD00" width="9.829" height="14.252"/>
		<rect x="100.559" y="386.206" fill="#FFCD00" width="7.126" height="5.161"/>
		<rect x="156.094" y="385.224" fill="#FFCD00" width="23.836" height="9.338"/>
		<rect x="169.363" y="358.439" fill="#FFCD00" width="5.406" height="31.208"/>
		<rect x="281.416" y="382.766" fill="#FFCD00" width="18.921" height="11.549"/>
	</g>
</g>
<g>
	<path d="M39.013,452.893v-40.816h8.2l22.152,26.313v-26.313h9.424v40.816h-8.2l-22.152-26.435v26.435H39.013z"/>
	<path d="M110.793,420.032H97.147v7.894h12.973v7.955H97.147v9.057h13.646v7.955h-23.07v-40.816h23.07V420.032z"/>
	<path d="M124.011,412.077l8.69,27.047l8.689-27.047h6.487l8.689,27.047l8.69-27.047h9.791l-13.891,40.816H153.2l-8.567-24.783
		l-8.567,24.783h-7.955l-13.891-40.816H124.011z"/>
	<path d="M204.174,433.861l-14.625-21.785h11.137l8.2,12.667l8.2-12.667h11.137l-14.625,21.785v19.031h-9.424V433.861z"/>
	<path d="M266.53,417.095c3.855,3.733,6.364,9.118,6.364,15.421c0,5.446-1.958,11.015-6.364,15.299
		c-3.794,3.672-8.934,5.997-15.788,5.997c-7.649,0-12.851-3.06-15.91-5.997c-3.916-3.672-6.364-9.179-6.364-15.176
		c0-5.875,2.631-11.81,6.303-15.482c2.754-2.754,7.833-5.997,15.971-5.997C257.107,411.159,262.431,413.117,266.53,417.095z
		 M241.747,423.336c-1.775,1.713-3.61,4.712-3.61,9.24c0,3.733,1.224,6.731,3.733,9.179c2.631,2.509,5.569,3.366,8.751,3.366
		c4.161,0,7.099-1.53,9.057-3.488c1.591-1.53,3.549-4.406,3.549-9.118c0-4.222-1.713-7.343-3.549-9.179
		c-2.019-1.958-5.263-3.488-8.996-3.488C247.132,419.848,243.95,421.133,241.747,423.336z"/>
	<path d="M294.252,412.077c5.202,0,8.445,1.713,10.403,3.549c1.713,1.652,3.549,4.59,3.549,9.118c0,2.57-0.551,5.752-3.182,8.322
		c-1.407,1.346-3.427,2.57-5.691,3.121l12.544,16.706h-11.504l-11.015-16.094v16.094h-9.424v-40.816H294.252z M289.356,430.618
		h2.142c1.713,0,4.039-0.184,5.63-1.775c0.673-0.673,1.53-1.958,1.53-3.978c0-2.325-1.102-3.549-1.897-4.161
		c-1.53-1.163-3.978-1.285-5.202-1.285h-2.203L289.356,430.618L289.356,430.618z"/>
	<path d="M326.501,429.088l13.952-17.012h11.505l-16.522,19.337l17.807,21.479h-12.116l-14.625-18.113v18.113h-9.424v-40.816h9.424
		V429.088z"/>
</g>
<g>
	<path d="M425.845,411.556h-20.653l-1.652,8.169c1.56-0.275,3.488-0.459,5.049-0.459c6.884,0,12.208,2.478,15.604,5.966
		c2.754,2.754,5.599,7.527,5.599,14.779c0,7.894-3.396,12.943-6.242,15.788c-5.599,5.507-12.3,6.425-18.542,6.425
		c-5.783,0-12.667-0.734-20.378-6.701l3.213-13.126c1.652,1.836,3.947,3.855,5.875,5.049c2.57,1.652,5.599,2.662,9.271,2.662
		c3.213,0,6.517-0.734,8.72-2.478c1.928-1.469,3.58-4.131,3.58-7.711c0-3.672-1.652-5.875-3.121-7.16
		c-0.734-0.643-3.763-3.213-10.189-3.213c-5.14,0-9.454,1.56-12.484,3.213l6.242-33.137h30.108L425.845,411.556L425.845,411.556z"/>
	<path d="M479.542,455.892c-3.58,3.488-8.904,6.334-16.431,6.334c-7.343,0-12.575-2.754-16.247-6.334
		c-5.966-5.875-8.812-15.146-8.812-25.61c0-10.556,2.846-19.919,8.812-25.702c3.672-3.58,8.904-6.334,16.247-6.334
		c7.527,0,12.851,2.846,16.431,6.334c5.966,5.783,8.812,15.146,8.812,25.702C488.354,440.746,485.509,450.017,479.542,455.892z
		 M457.512,412.658c-4.498,4.406-5.14,13.218-5.14,17.532c0,4.773,0.826,13.402,5.14,17.624c1.652,1.56,3.305,2.295,5.691,2.295
		c2.387,0,4.039-0.734,5.691-2.295c4.314-4.222,5.14-12.851,5.14-17.624c0-4.314-0.643-13.126-5.14-17.532
		c-1.652-1.56-3.305-2.295-5.691-2.295C460.816,410.363,459.164,411.097,457.512,412.658z"/>
	<path d="M521.674,423.948c-2.846,2.937-7.251,4.59-12.117,4.59c-4.865,0-9.271-1.652-12.117-4.59
		c-1.56-1.56-3.947-4.865-3.947-10.281s2.387-8.72,3.947-10.281c2.846-2.937,7.251-4.59,12.117-4.59
		c4.865,0,9.271,1.652,12.117,4.59c1.56,1.56,3.947,4.865,3.947,10.281C525.62,419.083,523.234,422.387,521.674,423.948z
		 M504.325,408.343c-1.193,1.193-2.019,3.121-2.019,5.324c0,2.203,0.826,4.131,2.019,5.324c1.01,1.102,2.754,2.111,5.232,2.111
		c2.478,0,4.222-1.01,5.232-2.111c1.193-1.193,2.02-3.121,2.02-5.324c0-2.203-0.826-4.131-2.02-5.324
		c-1.01-1.101-2.754-2.111-5.232-2.111C507.079,406.232,505.335,407.242,504.325,408.343z M543.612,398.613l6.425,1.377
		l-35.982,62.143l-6.334-1.469L543.612,398.613z M560.226,457.085c-2.846,2.937-7.252,4.59-12.117,4.59s-9.271-1.652-12.117-4.59
		c-1.56-1.56-3.947-4.865-3.947-10.281c0-5.416,2.387-8.72,3.947-10.281c2.846-2.937,7.252-4.59,12.117-4.59
		s9.271,1.652,12.117,4.59c1.56,1.56,3.947,4.865,3.947,10.281S561.786,455.524,560.226,457.085z M542.878,441.48
		c-1.193,1.193-2.02,3.121-2.02,5.324c0,2.203,0.826,4.131,2.02,5.324c1.01,1.102,2.754,2.111,5.232,2.111
		c2.479,0,4.223-1.01,5.232-2.111c1.193-1.193,2.019-3.121,2.019-5.324c0-2.203-0.826-4.131-2.019-5.324
		c-1.01-1.102-2.754-2.111-5.232-2.111C545.632,439.369,543.887,440.378,542.878,441.48z"/>
</g>
</svg>
