<?xml version="1.0" encoding="utf-8"?>
<!-- Generator: Adobe Illustrator 18.1.1, SVG Export Plug-In . SVG Version: 6.00 Build 0)  -->
<svg version="1.1" id="Layer_1" xmlns="http://www.w3.org/2000/svg" xmlns:xlink="http://www.w3.org/1999/xlink" x="0px" y="0px"
	 viewBox="-14 530 626 239" enable-background="new -14 530 626 239" xml:space="preserve">
<g>
	<polygon fill="#C9C7C7" stroke="#C9C7C7" stroke-width="12" stroke-miterlimit="10" points="307.9,636.7 307.9,628.8 309,628.8 
		309,627.4 315.5,627.4 315.5,623.5 316.6,623.5 316.6,622.1 343.4,622.1 343.4,598.1 330.4,598.1 330.4,616.8 314,616.8 314,612.4 
		304.1,612.4 304.1,636.7 	"/>
	<polygon fill="#C9C7C7" stroke="#C9C7C7" stroke-width="12" stroke-miterlimit="10" points="388.4,622.1 388.4,623.5 389.5,623.5 
		389.5,627.4 397.6,627.4 397.6,628.8 398.7,628.8 398.7,632.1 401.8,632.1 403.8,632.1 405.5,632.1 406.9,632.1 406.9,613.8 
		401.5,613.8 401.5,606 387.8,606 387.8,596.7 381.8,596.7 361.2,596.7 361.2,622.1 	"/>
	<polygon fill="#C9C7C7" stroke="#C9C7C7" stroke-width="12" stroke-miterlimit="10" points="141.7,613.9 151.3,613.9 160.4,613.9 
		160.4,591.3 158.1,591.3 158.1,588.3 142.5,588.3 142.5,593.7 140.6,598.6 140.6,605 141.7,605 	"/>
	<path fill="#AAA9A9" stroke="#AAA9A9" stroke-width="15" stroke-miterlimit="10" d="M140.6,616.7v-1.4h-1.1v-7.2
		c-0.2-0.1-0.3-0.2-0.3-0.5v-4l-11.5-11.4L113.2,607h-6.5v-4.4l-15.2-14.2l-16.7,14.2v4.9h-2.3v4.4h-2.5v3.5h-1.1v1.4h-8.5v51h-1.3
		c-0.2,1.6-0.6,3.6,0.1,4.9c0.9,1.9,4.6,0.9,6.3,1.1c0.3,0,0.5,0.2,0.5,0.5h63.8v-12.7h1.1v-1.4h8.6v-4.4h1.1v-1.4h9.7v-37.7
		L140.6,616.7L140.6,616.7z M104.5,608.8c-0.7,0-0.7-1.1,0-1.1S105.3,608.8,104.5,608.8z"/>
	<polygon fill="#AAA9A9" stroke="#AAA9A9" stroke-width="15" stroke-miterlimit="10" points="169.2,615.3 169.2,640.9 189.8,640.9 
		189.8,638.1 190.9,638.1 190.9,636.7 219.2,636.7 219.2,638.1 220.3,638.1 220.3,638.2 220.9,638.2 220.9,597.6 216.6,597.6 
		216.6,635.6 214.4,635.6 214.4,597.6 215.5,597.6 215.5,554.5 179.4,548.1 161.5,548.1 161.5,591.3 162.6,591.3 162.6,613.9 
		168.2,613.9 168.2,615.3 	"/>
	<path fill="#C9C7C7" stroke="#C9C7C7" stroke-width="12" stroke-miterlimit="10" d="M256.6,573.1v-3.9h-24.3v3.4h-4.2L222,578v19.6
		h1.1v40.6h0.1v-0.1h1.1v-1.4h12.7v-27.9h1.1v-1.4h4.1c0.7-1.6,2.5-4.9,5.1-5c1.9-0.1,3.6,1.6,5.2,5h14.1v-34.3L256.6,573.1
		L256.6,573.1z"/>
	<path fill="#666666" stroke="#666666" stroke-width="15" stroke-miterlimit="10" d="M223.1,639.4v2.9h-2.2v-2.9h-0.6v2.9h-2.2v-2.8
		H192v2.8h-1.1v1.4h-22.4c0,2.6-0.1,5.3-0.2,7.9h11.9v-4.8h1.1v-1.4h25v1.4h1.1v1.7h10.7v-1.7h1.1v-1.4h4v-6L223.1,639.4
		L223.1,639.4z"/>
	<path fill="#7C7C7C" stroke="#7C7C7C" stroke-width="15" stroke-miterlimit="10" d="M159.7,655.8h1.1v4.4h6.2c0.1-6,0.3-12,0.4-18
		h-0.3v-25.6h-14.7v37.7h7.3V655.8L159.7,655.8z"/>
	<path fill="#4F4E4D" stroke="#4F4E4D" stroke-width="16" stroke-miterlimit="10" d="M64.8,686.9h199.1c-0.1-1.3-0.1-2.6-0.1-4h-0.5
		v-9.4h-53.7v9.4h-2.2V663h-39.5c-0.2,0.2-0.6,0.2-0.8,0h-7.4v-1.4h-1.1v-4.4h-17v4.4h-1.1v1.4h-8.6v16.7h-2.2v-2.6H65.2v5.8h-0.4
		V686.9z"/>
	<path fill="#7C7C7C" stroke="#7C7C7C" stroke-width="15" stroke-miterlimit="10" d="M63.7,683H63v-7.2h1.1v-0.8
		c-2,0.1-4.2,0.3-5.5-1.1c-1.5-1.8-0.5-5.1-0.5-7.2c0-0.2,0.1-0.3,0.2-0.4v-18.7h-9.6l-7.9,5.2v11.2h-1.1v1.4H20.6v-1.9
		c-1,0-1.9,0-2.9,0v0.5H0.9v23.1h62.7C63.7,686.9,63.7,683,63.7,683z"/>
	<path fill="#333333" stroke="#333333" stroke-width="7" stroke-miterlimit="10" d="M276.5,683v-31.7h-6.2v-1.4h-1.1v-1.7h-6.2v1.7
		h-1.1v1.4H238v-1.4h-1.1v-10.4h-11.6v7.3h-1.1v1.4h-4v1.7h-1.1v1.4h-12.9v-1.4h-1.1v-1.7h-22.8v4.8h-1.1v1.4h-13.1
		c0,2-0.1,3.9-0.1,5.9h40.4v1.4h1.1v9.1h54.7v1.4h1.1V683h-0.6c0,1.3,0.1,2.6,0.1,4H276c0.2-1.3,0.5-2.6,0.8-4H276.5L276.5,683z"/>
	<path fill="#6B6969" stroke="#6B6969" stroke-width="15" stroke-miterlimit="10" d="M278.7,683h-0.8c-0.3,1.3-0.5,2.6-0.8,4h25
		c-0.1-0.1-0.1-0.2-0.1-0.3v-36.7h0v-32.4h-23.8v32.4h0.5L278.7,683L278.7,683z"/>
	<path fill="#999999" stroke="#969696" stroke-width="10" stroke-miterlimit="10" d="M336,662.3v0.4h0.4V683H336v3.3
		c0,0.3-0.2,0.4-0.4,0.5c0,0.1,0,0.1,0,0.2H403c-0.1-1.3-0.1-2.6-0.1-4h-0.2v-20.7C402.7,662.3,336,662.3,336,662.3z"/>
	<path fill="#7C7C7C" stroke="#7C7C7C" stroke-width="16" stroke-miterlimit="10" d="M334.5,686.9c0.1-1.3,0.2-2.6,0.2-4h-0.5v-20.3
		h0.6v-1.8c0-0.3,0.2-0.5,0.5-0.5v-0.9h39.3v-7.3h-4.4l-0.3-0.8c-0.1-0.3-0.2-0.5-0.3-0.7h0l-0.3,0l-0.2,0l-0.3,0l-0.3,0l-0.3,0
		l-0.3,0h-0.3l-0.3,0l-0.3,0l-0.3,0h-0.3l-0.3,0h-0.1c-0.2,0.3-0.4,0.6-0.5,0.9l-0.3,0.7h-14.2l-0.3-0.8c-0.1-0.3-0.3-0.7-0.4-1h0
		l-0.3,0l-0.3,0H350l-0.3,0h-0.3l-0.2,0l-0.3,0l-0.3,0h-0.3l-0.3,0l-0.3,0l-0.3,0l-0.3,0h-0.3l-0.2,0l-0.3,0l-0.3,0h-0.3l-0.3,0
		h-0.3l-0.2,0c0,0.1-0.1,0.2-0.1,0.3l-0.3,0.7h-25.8v11.4h-1v20.4c0.1,0.1,0.1,0.2,0.1,0.3v3.5L334.5,686.9L334.5,686.9z"/>
	<path fill="#AAA9A9" stroke="#AAA9A9" stroke-width="15" stroke-miterlimit="10" d="M409.5,642.3v-7.3h-2.7v-0.1h-9.2v-1.4h-1.1
		v-3.3h-8.2v-1.4h-1.1v-3.9h-27.2v-1.4H359v-26.8h1.1v-4.9c-3.4-2.9-6.1-21.1-6.1-21.1h-3c-1.5,15.2-6.5,22.1-6.5,22.1v5.4h1.1v25.3
		h-1.1v1.4h-26.8v3.9h-1.1v1.4h-6.5v7.9H309v1.4h-4.9v10.4h-1v36.7c0,0.1,0,0.2-0.1,0.3h14.3V685c-0.1-0.1-0.1-0.2-0.1-0.3v-22h0
		v-12.8h1.1v-1.4h25.6c0.7-1.3,2.4-4,4.6-3.8c1.7,0.1,3.1,1.7,4.4,4.7h11.7c0.7-1.1,2.1-3.2,4-3c1.2,0.1,2.3,1.1,3.1,3h4.1v1.4h1.1
		v8.7h14.2v-7.2c0-0.1,0-0.1,0-0.2c0-0.3,0.2-0.6,0.5-0.6h20.2v-9.3C411.8,642.3,409.5,642.3,409.5,642.3z"/>
	<path fill="#666666" stroke="#666666" stroke-width="15" stroke-miterlimit="10" d="M467,650.4h-27.9v1.4c0.1,0.2,0.1,0.5,0,0.7
		v16.7h-0.6v5.8h1v-1.4h9.3v-7.3h1.1v-1.4H467v-14.2h0.1L467,650.4L467,650.4z"/>
	<path fill="#C9C7C7" stroke="#C9C7C7" stroke-width="12" stroke-miterlimit="10" d="M474.2,606v-3.4h-13.7v-9.3h-13.3V606h-12.6
		v45.6h2.3V649h1.1v-1.4h30v0.6c0.1,0.1,0.1,0.2,0.1,0.4v2.2h1v14.2h2v-5.8h1.1v-1.4h9.2v-11h1.1v-37.3L474.2,606z"/>
	<path fill="#666666" stroke="#666666" stroke-width="15" stroke-miterlimit="10" d="M480.2,686.3v0.6h25.9v-0.5
		C497.4,686.7,488.8,686.5,480.2,686.3z"/>
	<path fill="#7C7C7C" stroke="#7C7C7C" stroke-width="15" stroke-miterlimit="10" d="M505.1,683v-4h1.1v-1.4h13V675h-0.3v-14.5
		h-45.5v4.4h1.2v1.4h1.1v3.8h4v1.4h1.1V683h-0.5v3.3c8.6,0.2,17.3,0.4,25.9,0.1V683L505.1,683L505.1,683z"/>
	<path fill="#333333" stroke="#333333" stroke-width="16" stroke-miterlimit="10" d="M439.4,685.7v1.2H479v-0.7
		C465.8,685.9,452.6,685.4,439.4,685.7z"/>
	<path fill="#4F4E4D" stroke="#4F4E4D" stroke-width="12" stroke-miterlimit="10" d="M478.5,683v-10h-4v-1.4h-1.1v-3.8h-22.5v7.3
		h-1.1v1.4h-9.3v6.6h-1.1v2.8c13.2-0.4,26.4,0.2,39.6,0.5V683L478.5,683L478.5,683z"/>
	<path fill="#4F4E4D" stroke="#4F4E4D" stroke-width="12" stroke-miterlimit="10" d="M437.3,683.6v-14.3h-0.4v-16.5h-5.7
		c-0.2,0-0.3-0.1-0.4-0.1h-18.7c-0.1,0.1-0.2,0.1-0.4,0.1h-19.6v6.8h11.6v1.4h1.1v10.4c0,0.1,0.1,0.2,0.1,0.3v15.4h23
		c0-0.3-0.1-0.6-0.1-0.6c3.5-0.3,6.9-0.5,10.4-0.6V684C438,684.2,437.3,684.1,437.3,683.6z"/>
	<path fill="#333333" stroke="#333333" stroke-width="16" stroke-miterlimit="10" d="M428,686.9h10.3v-1.1
		c-3.5,0.1-6.9,0.3-10.4,0.6C427.9,686.4,427.9,686.6,428,686.9z"/>
	<path fill="#999999" stroke="#999999" stroke-width="15" stroke-miterlimit="10" d="M544.7,685.2v-12.4h0v-3.6h1.1v-1.4h18v-11.7
		H560v2.4h-1.1v1.4h-21.4v19h-1.1v1.4h-29.2v2.6h-0.1v3.4c3.1-0.1,6.6-0.9,9.3-0.9C526,685.3,535.3,685.2,544.7,685.2z"/>
	<path fill="#999999" stroke="#999999" stroke-width="15" stroke-miterlimit="10" d="M544.7,685.2c-9.4,0-18.8,0-28.2,0.2
		c-2.7,0-6.2,0.8-9.3,0.9v0.6h37.5v-1.1c0,0,0-0.1,0-0.2V685.2L544.7,685.2z"/>
	<path fill="#333333" stroke="#333333" stroke-width="16" stroke-miterlimit="10" d="M582.4,681.1c0-0.5,0.6-0.7,0.9-0.4v-4.3
		l-4.4-5.7h-32.1v2.2h-1v6.8c0,0,0,0.1,0,0.2v5.5c12.2,0,24.3,0.2,36.6,0.4V681.1L582.4,681.1z"/>
	<path fill="#333333" stroke="#4F4E4D" stroke-width="16" stroke-miterlimit="10" d="M545.9,685.2v1.7h36.6v-1.3
		C570.2,685.4,558.1,685.3,545.9,685.2z"/>
	<path fill="#7C7C7C" stroke="#7C7C7C" stroke-width="15" stroke-miterlimit="10" d="M592.8,636.9h-13.6v5.4h-5.3V656h-4.6v-0.4
		h-3.4v12.2h13.5v1.4l0.8-1l5.6,7.3l-0.8,1l-0.6,0.7v8.4c2.8,0,5.5,0.1,8.3,0.1V636.9z"/>
	<path fill="#666666" stroke="#666666" stroke-width="15" stroke-miterlimit="10" d="M584.5,685.6L584.5,685.6
		c0,0.6-0.6,0.7-0.9,0.5v0.8h9.2v-1.2C590,685.7,587.3,685.7,584.5,685.6z"/>
	<polygon fill="#AAA9A9" stroke="#AAA9A9" stroke-width="15" stroke-miterlimit="10" points="517.3,642.3 513,642.3 513,637.9 
		485.2,637.9 485.2,646.7 483.7,646.7 483.7,657.7 517.3,657.7 	"/>
	<polygon fill="#C9C7C7" stroke="#C9C7C7" stroke-width="12" stroke-miterlimit="10" points="559,627.1 559,614.3 531.3,614.3 
		531.3,648.7 522.9,648.7 522.9,642.3 518.4,642.3 518.4,657.7 519.9,657.7 519.9,659.1 521,659.1 521,675 520.4,675 520.4,677.6 
		535.4,677.6 535.4,658.5 536.5,658.5 536.5,657.1 557.9,657.1 557.9,654.7 558.9,654.7 558.9,653.3 564.8,653.3 564.8,654.4 
		569.3,654.4 569.3,627.1 	"/>
	<path fill="#AAA9A9" stroke="#AAA9A9" stroke-width="7" stroke-miterlimit="10" d="M260.8,646.8h1.1v-1.4h8.4v1.4h1.1v1.7h5.7v-31
		h-1.7c-0.7,0-0.7-1.1,0-1.1h1.9c0.2-0.2,0.6-0.2,0.8,0h23.9v-4h1.1V606h-3v-5.9l-7.2-4.9l-6.8,4.4v6.4h-2.3v4.4h-9.5
		c-2.7-10.3-7.6-0.5-7.6-0.5v0.3h-14.7v-1.4l-0.9,0.7c-0.1-0.2-0.2-0.4-0.3-0.7H244c-0.1,0.2-0.2,0.4-0.3,0.6l-0.3,0.8h-4.4v38.3
		h21.7L260.8,646.8L260.8,646.8z"/>
	<path fill="#C9C7C7" stroke="#C9C7C7" stroke-width="12" stroke-miterlimit="10" d="M21.3,662.2c0.2,0,0.4,0.1,0.5,0.2h16.8v-10.6
		h1.1l-0.5-1.2l8.7-5.8l0.5,1.2v-1.4h9.9v-29.4h1.1v-1.4h8.5v-2.1h0.5v-16.7h-3.4v-11.4H52.3l-31.6,3.5v10.8h-3v64.1
		C18.9,662.3,20.1,662.2,21.3,662.2z"/>
</g>
<g enable-background="new    ">
	<path fill="#0EB2AF" d="M115.6,710.4c3.3,3.2,5.4,7.8,5.4,13.1c0,4.6-1.7,9.4-5.4,13c-3.2,3.1-7.6,5.1-13.4,5.1
		c-6.5,0-10.9-2.6-13.5-5.1c-3.3-3.1-5.4-7.8-5.4-12.9c0-5,2.2-10,5.4-13.2c2.3-2.3,6.7-5.1,13.6-5.1
		C107.6,705.4,112.1,707,115.6,710.4z M94.5,715.7c-1.5,1.5-3.1,4-3.1,7.9c0,3.2,1,5.7,3.2,7.8c2.2,2.1,4.7,2.9,7.4,2.9
		c3.5,0,6-1.3,7.7-3c1.4-1.3,3-3.7,3-7.8c0-3.6-1.5-6.2-3-7.8c-1.7-1.7-4.5-3-7.6-3C99.1,712.7,96.4,713.8,94.5,715.7z"/>
	<path fill="#0EB2AF" d="M146.4,734.3h-13.1l-2.7,6.6h-8.3l14-34.7h7.3l13.7,34.7H149L146.4,734.3z M144.2,728.1l-4.3-11.7
		l-4.3,11.7H144.2z"/>
	<path fill="#0EB2AF" d="M169.2,720.6l11.9-14.5h9.8l-14,16.4l15.1,18.3h-10.3l-12.4-15.4v15.4h-8v-34.7h8L169.2,720.6L169.2,720.6z
		"/>
	<path fill="#0EB2AF" d="M204.1,706.1v27.9h10.8v6.8h-18.8v-34.7H204.1z"/>
	<path fill="#0EB2AF" d="M241.4,734.3h-13.1l-2.7,6.6h-8.3l14-34.7h7.3l13.7,34.7H244L241.4,734.3z M239.2,728.1l-4.3-11.7
		l-4.3,11.7H239.2z"/>
	<path fill="#0EB2AF" d="M256.2,740.8v-34.7h7l18.8,22.4v-22.4h8v34.7h-7l-18.8-22.5v22.5H256.2z"/>
	<path fill="#0EB2AF" d="M308.6,706.1c4.6,0,9.4,0.7,13.7,4.8c3.1,3,5,7,5,12.4c0,5.5-1.9,9.4-4.7,12.3c-4.8,4.8-10.8,5.2-13.7,5.2
		h-11.2v-34.7H308.6z M305.7,734.1h2.1c1.7,0,5.3-0.2,7.9-2.3c1.9-1.6,3.4-4.5,3.4-8.4c0-3.7-1.5-6.1-2.9-7.5c-2.6-2.6-6-3-8.4-3
		h-2.1L305.7,734.1L305.7,734.1z"/>
</g>
<g enable-background="new    ">
	<path fill="#0EB2AF" d="M395.5,709.1h-21.9v-9.7h39.4l-29.4,50.7l-10.6-2.6L395.5,709.1z"/>
	<path fill="#0EB2AF" d="M445.9,709.1h-16.7l-1.3,6.6c1.3-0.2,2.8-0.4,4.1-0.4c5.6,0,9.9,2,12.6,4.8c2.2,2.2,4.5,6.1,4.5,12
		c0,6.4-2.8,10.5-5.1,12.8c-4.5,4.5-10,5.2-15,5.2c-4.7,0-10.3-0.6-16.5-5.4l2.6-10.6c1.3,1.5,3.2,3.1,4.8,4.1
		c2.1,1.3,4.5,2.2,7.5,2.2c2.6,0,5.3-0.6,7.1-2c1.6-1.2,2.9-3.3,2.9-6.2c0-3-1.3-4.8-2.5-5.8c-0.6-0.5-3-2.6-8.3-2.6
		c-4.2,0-7.7,1.3-10.1,2.6l5.1-26.8h24.4L445.9,709.1L445.9,709.1z"/>
	<path fill="#0EB2AF" d="M478.9,719.1c-2.3,2.4-5.9,3.7-9.8,3.7c-3.9,0-7.5-1.3-9.8-3.7c-1.3-1.3-3.2-3.9-3.2-8.3
		c0-4.4,1.9-7.1,3.2-8.3c2.3-2.4,5.9-3.7,9.8-3.7c3.9,0,7.5,1.3,9.8,3.7c1.3,1.3,3.2,3.9,3.2,8.3
		C482.1,715.2,480.2,717.9,478.9,719.1z M464.9,706.5c-1,1-1.6,2.5-1.6,4.3s0.7,3.3,1.6,4.3c0.8,0.9,2.2,1.7,4.2,1.7
		s3.4-0.8,4.2-1.7c1-1,1.6-2.5,1.6-4.3s-0.7-3.3-1.6-4.3c-0.8-0.9-2.2-1.7-4.2-1.7S465.7,705.6,464.9,706.5z M496.7,698.6l5.2,1.1
		l-29.1,50.3l-5.1-1.2L496.7,698.6z M510.2,746c-2.3,2.4-5.9,3.7-9.8,3.7c-3.9,0-7.5-1.3-9.8-3.7c-1.3-1.3-3.2-3.9-3.2-8.3
		c0-4.4,1.9-7.1,3.2-8.3c2.3-2.4,5.9-3.7,9.8-3.7c3.9,0,7.5,1.3,9.8,3.7c1.3,1.3,3.2,3.9,3.2,8.3C513.4,742,511.4,744.7,510.2,746z
		 M496.1,733.3c-1,1-1.6,2.5-1.6,4.3c0,1.8,0.7,3.3,1.6,4.3c0.8,0.9,2.2,1.7,4.2,1.7c2,0,3.4-0.8,4.2-1.7c1-1,1.6-2.5,1.6-4.3
		c0-1.8-0.7-3.3-1.6-4.3c-0.8-0.9-2.2-1.7-4.2-1.7C498.3,731.6,496.9,732.5,496.1,733.3z"/>
</g>
</svg>
