<?xml version="1.0" encoding="utf-8"?>
<!-- Generator: Adobe Illustrator 18.1.1, SVG Export Plug-In . SVG Version: 6.00 Build 0)  -->
<svg version="1.1" id="Layer_1" xmlns="http://www.w3.org/2000/svg" xmlns:xlink="http://www.w3.org/1999/xlink" x="0px" y="0px"
	 viewBox="0.472 207 611.528 284" enable-background="new 0.472 207 611.528 284" xml:space="preserve">
<g>
	<rect x="37.739" y="366.053" fill="#A8C6C4" width="20.025" height="53.446"/>
	<rect x="22.835" y="378.661" fill="#A8C6C4" width="20.025" height="28.229"/>
	<rect x="0.472" y="371.616" fill="#A8C6C4" width="18.121" height="38.269"/>
	<polyline fill="#A8C6C4" points="0.472,388.713 50.289,388.713 50.289,413.835 0.472,413.835 	"/>
	<rect x="47.751" y="361.989" fill="#A8C6C4" width="20.025" height="53.446"/>
	<rect x="63.52" y="375.335" fill="#A8C6C4" width="27.04" height="47.498"/>
	<rect x="28.453" y="402.87" fill="#095F5B" width="57.465" height="8.001"/>
	<rect x="576.9" y="362.161" fill="#A8C6C4" width="27.04" height="47.498"/>
	<rect x="549.515" y="349.252" fill="#A8C6C4" width="27.04" height="47.498"/>
	<rect x="529.255" y="362.525" fill="#D1D3D4" width="27.04" height="47.498"/>
	<rect x="509.966" y="355.318" fill="#A8C6C4" width="17.016" height="47.498"/>
	<rect x="497.391" y="343.442" fill="#A8C6C4" width="17.016" height="47.498"/>
	<rect x="491.103" y="327.373" fill="#A8C6C4" width="17.016" height="47.498"/>
	<rect x="449.186" y="327.373" fill="#D1D3D4" width="17.016" height="47.498"/>
	<rect x="407.667" y="327.373" fill="#D1D3D4" width="17.016" height="72.476"/>
	<rect x="416.175" y="300.525" fill="#A8C6C4" width="17.016" height="72.476"/>
	<rect x="345.614" y="304.018" fill="#D1D3D4" width="17.016" height="72.476"/>
	<rect x="324.656" y="308.21" fill="#A8C6C4" width="26.487" height="72.476"/>
	<rect x="307.19" y="314.497" fill="#A8C6C4" width="20.27" height="74.58"/>
	<rect x="265.273" y="317.292" fill="#A8C6C4" width="20.27" height="72.476"/>
	<rect x="256.191" y="324.278" fill="#A8C6C4" width="20.27" height="72.476"/>
	<rect x="228.871" y="336.763" fill="#A8C6C4" width="20.27" height="72.476"/>
	<rect x="203.425" y="335.377" fill="#A8C6C4" width="27.969" height="72.477"/>
	<rect x="156.261" y="356.538" fill="#A8C6C4" width="27.969" height="67.585"/>
	<rect x="107.325" y="362.91" fill="#A8C6C4" width="20.878" height="53.716"/>
	<rect x="91.492" y="352.21" fill="#D1D3D4" width="20.878" height="53.716"/>
	<rect x="97.955" y="357.112" fill="#A8C6C4" width="20.878" height="53.716"/>
	<rect x="134.453" y="360.115" fill="#D1D3D4" width="20.878" height="53.716"/>
	<rect x="182.562" y="348.97" fill="#A8C6C4" width="24.662" height="72.475"/>
	<rect x="583.188" y="381.457" fill="#A8C6C4" width="27.04" height="28.901"/>
	<polygon fill="#619B97" points="495.265,300.419 495.265,299.454 493.928,299.454 493.928,297.963 491.403,297.963 
		491.403,296.998 484.048,296.998 484.048,288.31 483.379,288.31 483.379,280.765 483.045,280.765 483.045,273.832 482.711,273.832 
		482.711,280.765 482.711,282.081 482.711,288.31 482.711,290.591 482.711,300.419 482.711,301.239 479.195,301.239 
		479.195,300.419 479.195,290.591 479.195,288.31 479.195,282.081 479.195,280.765 479.195,273.832 478.86,273.832 478.86,280.765 
		478.526,280.765 478.526,288.31 477.857,288.31 477.857,296.998 470.503,296.998 470.503,297.963 467.978,297.963 467.978,299.454 
		466.64,299.454 466.64,300.419 460.326,300.419 460.326,409.578 475.877,409.578 479.195,409.578 482.711,409.578 487.564,409.578 
		501.58,409.578 501.58,300.419 	"/>
	<polygon fill="#619B97" points="158.538,353.157 158.538,349.118 156.798,349.118 156.798,351.332 154.783,351.332 
		154.783,353.157 153.959,353.157 153.959,351.332 152.036,351.332 152.036,350.031 150.57,350.031 150.57,351.332 149.197,351.332 
		149.197,350.031 147.274,350.031 147.274,353.157 144.893,353.157 144.893,418.822 159.179,418.822 159.179,353.157 	"/>
	<polygon fill="#095F5B" points="451.849,320.843 451.849,317.449 446.334,317.449 446.334,320.843 441.526,320.843 
		441.526,409.653 456.657,409.653 456.657,320.843 	"/>
	<polygon fill="#05B2AE" points="467.878,353.213 467.878,350.95 466.941,350.95 466.941,347.415 465.298,347.415 465.298,345.576 
		463.239,345.576 463.239,343.031 459.39,343.031 459.39,345.576 457.33,345.576 457.33,347.415 455.688,347.415 455.688,350.95 
		454.75,350.95 454.75,353.213 453.713,353.213 453.713,410.628 468.914,410.628 468.914,353.213 	"/>
	<polygon fill="#619B97" points="313.066,301.011 313.066,295.07 308.511,295.07 308.511,283.407 303.892,283.407 303.892,276.366 
		302.98,276.366 302.98,283.407 298.361,283.407 298.361,295.07 293.807,295.07 293.807,301.011 288.732,301.011 288.732,403.338 
		318.139,403.338 318.139,301.011 	"/>
	<polygon fill="#095F5B" points="593.674,316.131 593.674,311.802 590.284,311.802 590.284,309.782 587.398,309.782 
		587.398,311.802 580.474,311.802 580.474,309.782 579.031,309.782 579.031,311.802 575.496,311.802 575.496,316.131 
		568.138,316.131 568.138,411.354 601.032,411.354 601.032,316.131 	"/>
	<polygon fill="#095F5B" points="533.784,343.146 533.784,339.049 528.147,339.049 528.147,343.146 523.486,343.146 
		523.486,402.637 538.446,402.637 538.446,343.146 	"/>
	<polygon fill="#619B97" points="179.91,369.325 179.91,366.824 179.168,366.824 179.168,369.325 174.901,369.325 174.901,410.601 
		196.235,410.601 196.235,369.325 	"/>
	<polygon fill="#619B97" points="554.124,346.654 554.124,344.982 554.124,344.145 552.173,344.145 552.173,344.982 
		550.981,344.982 550.981,343.309 547.838,343.309 547.838,344.982 547.838,346.654 543.285,346.654 543.285,403.998 
		556.726,403.998 556.726,346.654 	"/>
	<polygon fill="#619B97" points="391.145,294.591 391.145,291.435 389.817,291.435 389.817,284.625 388.322,284.625 
		388.322,291.435 382.841,291.435 382.841,289.775 379.685,289.775 379.685,291.435 379.021,291.435 379.021,294.591 355.6,294.591 
		355.6,409.197 413.07,409.197 413.07,294.591 	"/>
	<polygon fill="#095F5B" points="96.784,331.516 96.784,329.262 94.16,329.262 94.16,331.516 88.914,331.516 88.914,329.262 
		85.766,329.262 85.766,331.516 85.766,346.332 84.455,346.332 84.455,413.969 85.766,413.969 98.358,413.969 98.358,331.516 	"/>
	<polygon fill="#619B97" points="136.411,345.895 136.411,342.456 129.805,342.456 129.805,345.895 127.682,345.895 
		127.682,415.679 140.658,415.679 140.658,345.895 	"/>
	<polygon fill="#095F5B" points="563.691,378.265 563.691,376.24 559.823,376.24 559.823,378.265 557.38,378.265 557.38,376.24 
		555.447,376.24 555.447,373.001 550.153,373.001 550.153,376.24 548.219,376.24 548.219,378.265 545.776,378.265 545.776,376.24 
		541.908,376.24 541.908,378.265 539.771,378.265 539.771,406.612 565.829,406.612 565.829,378.265 	"/>
	<polygon fill="#095F5B" points="499.886,356.591 499.886,351.732 488.485,351.732 488.485,348.492 485.431,348.492 
		485.431,351.732 483.396,351.732 483.396,356.591 480.953,356.591 480.953,409.642 511.897,409.642 511.897,356.591 	"/>
	<polygon fill="#095F5B" points="128.749,377.166 128.749,375.431 124.123,375.431 124.123,377.166 117.764,377.166 
		117.764,375.431 103.889,375.431 103.889,377.166 100.131,377.166 100.131,410.119 135.397,410.119 135.397,377.166 	"/>
	<g>
		<path fill="#05B2AE" d="M530.028,375.419v-1.259h-0.763v-5.626h0.511v-1.68h-0.511h-1.462v-0.965h0.671v-0.798h-0.671v-1.008
			h-1.008v-2.771h0.463v-0.924h-0.463v-0.587h-1.679v-4.198h0.463v-0.588h-0.463h-0.629v-1.805h0.251v-0.546h-0.251v-0.251h-0.051
			c0.031-0.094,0.051-0.191,0.051-0.295c0-0.414-0.263-0.764-0.63-0.901v-7.369h-0.671v7.369c-0.367,0.137-0.63,0.487-0.63,0.901
			c0,0.104,0.02,0.201,0.05,0.295h-0.05v0.251h-0.253v0.546h0.253v1.805h-0.63h-0.461v0.588h0.461v4.198h-1.679v0.587h-0.461v0.924
			h0.461v2.771h-1.007v1.008h-0.672v0.798h0.672v0.965h-1.462h-0.512v1.68h0.512v5.626h-0.763v1.259h0.763v1.259h-0.512v0.755h0.512
			v20.403h11.488v-20.403h0.511v-0.755h-0.511v-1.259L530.028,375.419L530.028,375.419z"/>
		<polygon fill="#05B2AE" points="603.408,397.532 509.059,397.532 506.57,399.312 500.768,396.406 494.768,399.41 494.768,397.205 
			489.339,395.137 483.911,397.205 483.911,399.105 477.988,399.105 477.988,410.628 483.911,410.628 485.188,410.628 
			494.052,410.628 494.768,410.628 502.277,410.628 507.484,410.628 608.684,410.628 608.684,402.379 		"/>
	</g>
	<polygon fill="#05B2AE" points="405.08,327.657 405.08,317.524 397.75,317.524 397.75,327.657 393.87,327.657 393.87,344.257 
		387.833,344.257 387.833,409.578 407.667,409.578 407.667,346.196 407.667,344.257 407.667,327.657 	"/>
	<polygon fill="#05B2AE" points="440.327,314.214 440.327,256.814 434.474,254.885 431.412,213.552 428.963,213.552 
		425.906,254.816 420.048,256.814 420.048,314.214 411.284,410.628 449.092,410.628 	"/>
	<polygon fill="#095F5B" points="346.551,321.837 346.551,320.423 340.047,320.423 340.047,318.584 329.723,318.584 
		329.723,321.837 327.46,321.837 327.46,411.354 361.542,411.354 361.542,321.837 	"/>
	<polygon fill="#05B2AE" points="374.468,376.172 374.468,373.906 374.468,373.493 377.56,373.493 377.56,370.814 374.468,370.814 
		374.468,369.475 377.56,369.475 377.56,365.869 371.995,365.869 371.995,365.224 369.626,365.224 369.626,364.271 366.277,364.271 
		366.277,365.869 365.4,365.869 365.4,362.364 358.703,362.364 358.703,365.869 353.757,365.869 353.757,369.475 358.085,369.475 
		358.085,370.814 353.757,370.814 353.757,373.493 358.085,373.493 358.085,373.906 358.085,376.172 335.415,376.172 
		335.415,409.455 383.227,409.455 383.227,376.172 	"/>
	<polygon fill="#619B97" points="257.323,309.58 257.323,307.362 254.731,307.362 254.731,305.142 251.794,305.142 251.794,307.362 
		249.547,307.362 249.547,309.58 239.006,309.58 239.006,402.762 260.088,402.762 260.088,309.58 	"/>
	<polygon fill="#095F5B" points="288.773,310.919 288.773,308.059 277.424,308.059 277.424,310.919 274.587,310.919 
		274.587,409.978 291.609,409.978 291.609,310.919 	"/>
	<polygon fill="#619B97" points="230.024,346.044 230.024,344.743 226.871,344.743 222.789,344.743 222.789,346.044 217.41,346.044 
		217.41,408.916 236.332,408.916 236.332,346.044 	"/>
	<polygon fill="#095F5B" points="267.741,342.269 267.741,341.51 263.66,341.51 263.66,342.269 262.083,342.269 262.083,341.51 
		258.002,341.51 258.002,342.269 256.332,342.269 256.332,341.51 252.436,341.51 252.436,342.269 250.257,342.269 250.257,404.491 
		269.92,404.491 269.92,342.269 	"/>
	<polygon fill="#095F5B" points="322.105,335.559 322.105,331.914 318.034,331.914 318.034,335.559 315.183,335.559 
		315.183,331.914 308.261,331.914 308.261,335.559 305.412,335.559 305.412,403.998 324.954,403.998 324.954,335.559 	"/>
	<path fill="#05B2AE" d="M329.547,389.175v-1.755h-8.988v-0.473h-1.893v0.473h-8.988v1.755h-0.843v0.524h0.216v0.431h0.154v0.447
		h0.193v0.2h0.281v4.008h-23.711v-4.417h0.254v-0.181h0.174v-0.403h0.139v-0.39h0.194v-0.473h-0.761v-1.586h-17.946v1.586h-0.761
		v0.473h0.195v0.39h0.139v0.403h0.174v0.181h0.253v4.417H244.31v-4.008h0.281v-0.2h0.192v-0.447h0.155v-0.431h0.216v-0.524h-0.843
		v-1.755h-8.989v-0.473h-1.892v0.473h-8.988v1.755h-0.844v0.524h0.216v0.431h0.154v0.447h0.192v0.2h0.282v17.718h-0.477v0.605h0.477
		v0.349l105.094,0.005V409.1h0.408v-0.605h-0.408v-10.892v-0.682v-0.445h0.011v-5.7h0.281v-0.2h0.192v-0.447h0.154v-0.431h0.216
		v-0.524L329.547,389.175L329.547,389.175z M245.057,396.916h-0.644v-0.257h0.341v-1.419h-0.341v-0.258h0.644V396.916z
		 M245.39,396.916h-0.139v-1.934h0.139V396.916z M245.724,396.916h-0.139v-1.934h0.139V396.916z M246.058,396.916h-0.139v-1.934
		h0.139V396.916z M246.392,396.916h-0.139v-1.934h0.139V396.916z M247.223,395.24h-0.341v1.419h0.341v0.257h-0.637v-1.934h0.637
		V395.24z M248.061,396.916h-0.643v-0.257h0.34v-1.419h-0.34v-0.258h0.643V396.916z M248.395,396.916h-0.139v-1.934h0.139V396.916z
		 M248.728,396.916h-0.139v-1.934h0.139V396.916z M249.063,396.916h-0.139v-1.934h0.139V396.916z M249.396,396.916h-0.139v-1.934
		h0.139V396.916z M250.228,395.24h-0.341v1.419h0.341v0.257h-0.637v-1.934h0.637V395.24z M251.066,396.916h-0.643v-0.257h0.34
		v-1.419h-0.34v-0.258h0.643V396.916z M251.4,396.916h-0.139v-1.934h0.139V396.916z M251.734,396.916h-0.139v-1.934h0.139V396.916z
		 M252.067,396.916h-0.139v-1.934h0.139V396.916z M252.402,396.916h-0.139v-1.934h0.139V396.916z M253.233,395.24h-0.341v1.419
		h0.341v0.257h-0.636v-1.934h0.636V395.24z M254.071,396.916h-0.643v-0.257h0.34v-1.419h-0.34v-0.258h0.643V396.916z
		 M254.405,396.916h-0.139v-1.934h0.139V396.916z M254.738,396.916H254.6v-1.934h0.139V396.916z M255.072,396.916h-0.139v-1.934
		h0.139V396.916z M255.406,396.916h-0.139v-1.934h0.139V396.916z M256.237,395.24h-0.34v1.419h0.34v0.257h-0.636v-1.934h0.636
		V395.24z M257.076,396.916h-0.643v-0.257h0.34v-1.419h-0.34v-0.258h0.643V396.916z M257.409,396.916h-0.139v-1.934h0.139V396.916z
		 M257.744,396.916h-0.139v-1.934h0.139V396.916z M258.077,396.916h-0.139v-1.934h0.139V396.916z M258.411,396.916h-0.139v-1.934
		h0.139V396.916z M259.242,395.24h-0.341v1.419h0.341v0.257h-0.637v-1.934h0.637V395.24z M260.08,396.916h-0.643v-0.257h0.341
		v-1.419h-0.341v-0.258h0.643V396.916z M260.414,396.916h-0.139v-1.934h0.139V396.916z M260.748,396.916h-0.139v-1.934h0.139
		V396.916z M261.082,396.916h-0.139v-1.934h0.139V396.916z M261.415,396.916h-0.139v-1.934h0.139V396.916z M262.247,395.24h-0.341
		v1.419h0.341v0.257h-0.637v-1.934h0.637V395.24z M263.085,396.916h-0.643v-0.257h0.34v-1.419h-0.34v-0.258h0.643V396.916z
		 M263.419,396.916h-0.139v-1.934h0.139V396.916z M263.753,396.916h-0.139v-1.934h0.139V396.916z M264.087,396.916h-0.14v-1.934
		h0.14V396.916z M264.421,396.916h-0.139v-1.934h0.139V396.916z M265.252,395.24h-0.34v1.419h0.34v0.257h-0.636v-1.934h0.636V395.24
		z M266.09,396.916h-0.643v-0.257h0.341v-1.419h-0.341v-0.258h0.643V396.916z M266.424,396.916h-0.139v-1.934h0.139V396.916z
		 M266.758,396.916h-0.139v-1.934h0.139V396.916z M267.092,396.916h-0.139v-1.934h0.139V396.916z M267.425,396.916h-0.139v-1.934
		h0.139V396.916z M268.257,396.916h-0.637v-1.934h0.401v0.258h-0.106v1.419h0.341V396.916z M309.672,396.92l-23.983-0.002v-0.001
		h0.044v-0.257h0.341v-1.419h-0.106v-0.258h0.401v1.934h0.195v-1.934h0.139v1.934h0.195v-1.934h0.139v1.934h0.194v-1.934h0.139
		v1.934h0.194v-1.934h0.139v1.934h0.194v-1.934h0.643v0.258h-0.34v1.419h0.34v0.257h0.195v-0.257h0.341v-1.419h-0.341v-0.258h0.637
		v1.934h0.195v-1.934h0.139v1.934h0.195v-1.934h0.139v1.934h0.194v-1.934h0.139v1.934h0.195v-1.934h0.139v1.934h0.194v-1.934h0.643
		v0.258h-0.341v1.419h0.341v0.257h0.194v-0.257h0.341v-1.419h-0.341v-0.258h0.637v1.934h0.195v-1.934h0.139v1.934h0.195v-1.934
		h0.139v1.934h0.194v-1.934h0.139v1.934h0.195v-1.934h0.139v1.934h0.195v-1.934h0.643v0.258h-0.341v1.419h0.341v0.257h0.195v-0.257
		h0.341v-1.419h-0.341v-0.258h0.636v1.934h0.195v-1.934h0.139v1.934h0.194v-1.934h0.139v1.934h0.195v-1.934h0.139v1.934h0.195
		v-1.934h0.139v1.934h0.194v-1.934h0.643v0.258h-0.34v1.419h0.34v0.257h0.195v-0.257h0.341v-1.419h-0.341v-0.258h0.637v1.934h0.194
		v-1.934h0.139v1.934h0.195v-1.934h0.139v1.934h0.195v-1.934h0.139v1.934h0.194v-1.934h0.139v1.934h0.195v-1.934h0.643v0.258h-0.34
		v1.419h0.34v0.257h0.195v-0.257h0.341v-1.419h-0.341v-0.258h0.637v1.934h0.194v-1.934h0.139v1.934h0.195v-1.934h0.139v1.934h0.195
		v-1.934h0.139v1.934h0.195v-1.934h0.138v1.934h0.195v-1.934h0.644v0.258h-0.341v1.419h0.341v0.257h0.194v-0.257h0.341v-1.419
		h-0.341v-0.258h0.637v1.934h0.194v-1.934h0.14v1.934h0.194v-1.934h0.139v1.934h0.195v-1.934h0.139v1.934h0.194v-1.934h0.14v1.934
		h0.194v-1.934h0.644v0.258h-0.341v1.419h0.341v0.257h0.195v-0.257h0.34v-1.419h-0.34v-0.258h0.636v1.934h0.195v-1.934h0.139v1.934
		h0.194v-1.934h0.139v1.934h0.195v-1.934h0.139v1.934h0.195v-1.934h0.139v1.934h0.194v-1.934h0.644v0.258h-0.341v1.419h0.341v0.257
		h0.096L309.672,396.92L309.672,396.92z"/>
	<polygon fill="#095F5B" points="218.385,370.491 218.385,363.554 217.411,363.554 217.411,362.865 214.999,362.865 
		214.999,363.554 209.712,363.554 209.712,362.176 206.837,362.176 206.837,363.554 203.127,363.554 203.127,359.019 
		202.014,359.019 202.014,363.554 200.762,363.554 200.762,370.491 199.184,370.491 199.184,411.397 219.962,411.397 
		219.962,370.491 	"/>
	<rect x="4.713" y="383.97" fill="#619B97" width="18.121" height="25.915"/>
	<rect x="126.886" y="401.53" fill="#231F20" width="19.877" height="7.318"/>
	<polygon fill="#05B2AE" points="128.874,398.066 128.874,397.338 127.692,397.338 127.692,397.1 127.692,396.656 127.987,396.655 
		127.987,396.402 127.692,396.402 127.692,395.905 126.671,395.905 124.634,393.426 118.93,393.426 118.93,393.133 116.216,393.133 
		116.216,391.603 116.403,391.603 116.403,391.269 116.216,391.269 116.216,390.934 115.748,390.934 114.28,389.238 
		111.982,389.238 111.982,388.951 111.257,388.951 111.257,388.712 110.584,388.712 110.584,388.951 109.859,388.951 
		109.859,389.238 106.929,389.238 106.929,388.951 106.204,388.951 106.204,388.712 105.531,388.712 105.531,388.951 
		104.805,388.951 104.805,389.238 102.508,389.238 101.04,390.934 100.571,390.934 100.571,391.269 100.384,391.269 
		100.384,391.603 100.571,391.603 100.571,393.133 97.857,393.133 97.857,393.426 92.154,393.426 90.117,395.905 89.095,395.905 
		89.095,396.431 89.095,396.48 88.8,396.48 88.801,396.735 89.095,396.733 89.095,397.1 89.095,397.338 87.913,397.338 
		87.913,398.066 87.644,398.066 87.644,398.32 87.913,398.32 87.913,398.618 88.289,398.618 88.289,409.455 128.498,409.455 
		128.498,398.618 128.874,398.618 128.874,398.32 129.143,398.32 129.143,398.066 	"/>
	<path fill="#05B2AE" d="M205.643,396.006h-0.404v-0.319h-0.56v-1.065h0.274v-0.366h0.143v-0.243h-0.143v-0.533h-0.547v-0.259
		h-0.334v-17.609h-0.146v0.826c-0.069,0.19-0.175,0.481-0.268,0.724c-0.142,0.371-0.316,0.662-0.482,0.965
		c-0.201,0.367-0.09,0.667-0.308,0.983c-0.3,0.431-0.796,0.057-1.077,1.491c-0.069,0.347-0.158-0.028-0.232,0.297
		c-0.086,0.379,0.099,0.57,0.065,0.968c-0.087,1.036,0.176,3.209,0.313,2.947c0.574-1.105,1.213-0.461,1.444-1.421
		c0.143-0.592,0.415-0.629,0.544-0.609v10.438h-0.87l-2.617-0.366v-13.957h-0.146v0.825c-0.069,0.19-0.175,0.482-0.268,0.725
		c-0.141,0.371-0.316,0.661-0.482,0.965c-0.201,0.368-0.089,0.668-0.308,0.984c-0.3,0.431-0.796,0.057-1.076,1.491
		c-0.07,0.347-0.158-0.028-0.233,0.297c-0.086,0.379,0.099,0.571,0.065,0.967c-0.087,1.036,0.177,3.209,0.313,2.948
		c0.574-1.106,1.213-0.461,1.444-1.422c0.143-0.592,0.415-0.629,0.545-0.609v6.764l-1.795-0.251h-1.692v-11.037h-0.146v0.826
		c-0.069,0.19-0.175,0.481-0.268,0.724c-0.141,0.37-0.316,0.662-0.482,0.965c-0.201,0.369-0.089,0.669-0.307,0.984
		c-0.3,0.431-0.796,0.057-1.077,1.491c-0.069,0.347-0.157-0.028-0.232,0.296c-0.086,0.379,0.099,0.571,0.065,0.969
		c-0.087,1.036,0.176,3.209,0.313,2.947c0.574-1.106,1.213-0.461,1.444-1.421c0.143-0.592,0.414-0.63,0.545-0.609v3.866h-16.314
		v-0.35h-0.351v-0.821h0.091v-0.335h0.143v-0.183h-0.143v-0.791h-1.771v-0.807h0.182v-0.289h-0.182v-0.852h-0.286v-4.199h-0.208
		v-0.319h0.273v-0.525h-0.273v-0.319h0.322v-0.503h-0.12v-0.722h-0.104v-0.379h-0.124v-0.168h0.124v-0.259h-0.097v-0.213h-0.086
		c0.021-0.069,0.034-0.165,0.034-0.273c0-0.211-0.049-0.38-0.111-0.38c-0.061,0-0.111,0.169-0.111,0.38
		c0,0.108,0.013,0.205,0.034,0.273h-0.086v0.213h-0.097v0.259h0.124v0.168h-0.124v0.379h-0.104v0.722h-0.137v-1.133h-0.143v-0.487
		h-0.104v-0.379h-0.123v-0.168h0.123v-0.259h-0.097v-0.213h-0.086c0.021-0.069,0.034-0.167,0.034-0.274
		c0-0.211-0.049-0.381-0.111-0.381c-0.044,0-0.082,0.09-0.1,0.22v-0.114h-0.263c0-0.034,0.002-0.069,0.002-0.102
		c0-2.909-1.505-5.405-3.653-6.488c0.081-0.096,0.128-0.205,0.128-0.325c0-0.21-0.148-0.397-0.376-0.514
		c0.004-0.021,0.006-0.042,0.006-0.063c0-0.181-0.125-0.327-0.281-0.327h-0.051v-0.518h-0.072v-0.267h-0.087v-0.117h0.087V370.2
		h-0.069v-0.149h-0.06c0.014-0.049,0.023-0.117,0.023-0.192c0-0.147-0.034-0.267-0.077-0.267c-0.043,0-0.077,0.119-0.077,0.267
		c0,0.076,0.009,0.143,0.023,0.192h-0.06v0.149h-0.069v0.182h0.087v0.117h-0.087v0.267h-0.073v0.518H171.5v-2.602h0.177v-0.274
		h-0.104v-0.486h-0.063v-0.229h-0.074v-0.101h0.074v-0.156h-0.058v-0.128h-0.052c0.013-0.041,0.02-0.1,0.02-0.165
		c0-0.126-0.029-0.229-0.066-0.229c-0.037,0-0.067,0.103-0.067,0.229c0,0.065,0.008,0.124,0.02,0.165h-0.052v0.128h-0.059v0.156
		h0.075v0.101h-0.075v0.229h-0.062v-0.184h-0.192v-0.533h0.11v-0.292h-0.149v-0.332v-0.35h-0.183v-0.274h0.183v-0.365h-0.065v-0.258
		h-0.264l-0.146-1.948h-0.092v-0.863c0.092-0.017,0.163-0.108,0.163-0.221s-0.071-0.205-0.163-0.221v-0.521h-0.181v0.521
		c-0.092,0.016-0.164,0.108-0.164,0.221c0,0.113,0.071,0.205,0.164,0.221v0.863h-0.092l-0.147,1.948h-0.264v0.258h-0.065v0.365
		h0.182v0.274h-0.182v0.35v0.332h-0.149v0.292h0.109v0.533h-0.192v0.184h-0.063v-0.229h-0.075v-0.101h0.075v-0.156h-0.058v-0.128
		h-0.052c0.013-0.041,0.021-0.1,0.021-0.165c0-0.126-0.03-0.229-0.067-0.229c-0.037,0-0.066,0.103-0.066,0.229
		c0,0.065,0.008,0.124,0.02,0.165h-0.052v0.128h-0.059v0.156h0.075v0.101h-0.075v0.229h-0.062v0.486h-0.104v0.274h0.177v2.602
		h-0.052v-0.518h-0.073v-0.267h-0.087v-0.117h0.087V370.2h-0.068v-0.149h-0.06c0.014-0.049,0.024-0.117,0.024-0.192
		c0-0.147-0.035-0.267-0.078-0.267c-0.043,0-0.078,0.119-0.078,0.267c0,0.076,0.009,0.143,0.024,0.192h-0.06v0.149H168.5v0.182
		h0.086v0.117H168.5v0.267h-0.073v0.518h-0.051c-0.154,0-0.28,0.146-0.28,0.327c0,0.022,0.002,0.042,0.005,0.063
		c-0.228,0.118-0.376,0.304-0.376,0.514c0,0.119,0.048,0.229,0.129,0.325c-2.149,1.083-3.654,3.579-3.654,6.488
		c0,0.034,0.002,0.068,0.003,0.102h-0.264v0.114c-0.018-0.13-0.056-0.22-0.1-0.22c-0.061,0-0.111,0.17-0.111,0.381
		c0,0.107,0.013,0.204,0.034,0.274h-0.085v0.213h-0.098v0.259h0.124v0.168h-0.124v0.379h-0.104v0.487h-0.143v1.133h-0.149v-0.722
		h-0.104v-0.379h-0.123v-0.168h0.123v-0.259h-0.097v-0.213h-0.087c0.022-0.069,0.034-0.165,0.034-0.273
		c0-0.211-0.049-0.38-0.111-0.38c-0.061,0-0.111,0.169-0.111,0.38c0,0.108,0.013,0.205,0.034,0.273h-0.086v0.213h-0.098v0.259h0.124
		v0.168h-0.124v0.379h-0.104v0.722h-0.108v0.503h0.322v0.319h-0.273v0.525h0.273v0.319h-0.208v4.199h-0.287v0.852h-0.182v0.289
		h0.182v0.807h-1.77v0.791h-0.143v0.183h0.143v0.335h0.091v0.821h-0.352v0.35h-16.419v-3.866c0.13-0.02,0.402,0.017,0.545,0.609
		c0.231,0.96,0.87,0.315,1.444,1.421c0.136,0.261,0.4-1.911,0.313-2.947c-0.034-0.398,0.15-0.59,0.065-0.969
		c-0.075-0.324-0.164,0.051-0.232-0.296c-0.281-1.434-0.776-1.06-1.077-1.491c-0.218-0.315-0.106-0.615-0.308-0.984
		c-0.165-0.303-0.34-0.594-0.482-0.965c-0.092-0.243-0.199-0.534-0.268-0.724v-0.826h-0.146v11.037h-1.586l-1.9,0.266v-6.78
		c0.13-0.02,0.402,0.016,0.545,0.608c0.231,0.961,0.87,0.316,1.444,1.422c0.136,0.261,0.4-1.912,0.313-2.948
		c-0.034-0.397,0.151-0.588,0.065-0.967c-0.075-0.325-0.164,0.051-0.233-0.297c-0.28-1.433-0.776-1.06-1.077-1.491
		c-0.218-0.316-0.106-0.616-0.307-0.984c-0.166-0.304-0.34-0.594-0.482-0.965c-0.093-0.243-0.199-0.534-0.269-0.725v-0.825h-0.146
		v13.971l-2.512,0.352h-0.975v-10.438c0.13-0.02,0.402,0.017,0.545,0.609c0.231,0.96,0.87,0.316,1.444,1.421
		c0.136,0.262,0.4-1.911,0.313-2.947c-0.033-0.398,0.151-0.589,0.065-0.968c-0.075-0.325-0.163,0.051-0.233-0.297
		c-0.28-1.434-0.776-1.06-1.076-1.491c-0.218-0.316-0.107-0.616-0.308-0.983c-0.166-0.304-0.34-0.594-0.482-0.965
		c-0.093-0.243-0.199-0.534-0.268-0.724v-0.826h-0.146v17.609h-0.229v0.259h-0.546v0.533h-0.144v0.243h0.144v0.366h0.273v1.065
		h-0.56v0.319h-0.404h-0.677v0.319h0.208v0.197h0.469v12.933h26.142h0.729h17.054h0.73h26.142v-12.933h0.468v-0.197h0.208v-0.319
		L205.643,396.006L205.643,396.006z M163.94,379.65h-0.024c0.01-0.033,0.018-0.072,0.024-0.114V379.65z M164.1,380.639v-0.03h0.26
		c0.002,0.009,0.004,0.02,0.006,0.03H164.1z M176.39,380.639h-0.266c0.002-0.01,0.004-0.02,0.006-0.03h0.26L176.39,380.639
		L176.39,380.639z M176.55,379.65v-0.114c0.006,0.042,0.014,0.081,0.023,0.114H176.55z"/>
	<rect x="206.32" y="400.1" fill="#05B2AE" width="15.445" height="8.782"/>
	<rect x="408.413" y="398.388" fill="#05B2AE" width="23.451" height="11.031"/>
	<rect x="439.567" y="388.224" fill="#05B2AE" width="19.049" height="21.194"/>
	<rect x="341.94" y="391.462" fill="#05B2AE" width="17.38" height="17.956"/>
	<rect x="381.639" y="383.667" fill="#05B2AE" width="16.111" height="25.752"/>
	<rect x="463.854" y="389.958" fill="#05B2AE" width="13.115" height="20.964"/>
	<rect x="331.419" y="402.815" fill="#231F20" width="7.992" height="6.294"/>
	<rect x="211" y="395.742" fill="#05B2AE" width="10.723" height="14.041"/>
	<rect x="455.492" y="392.653" fill="#05B2AE" width="15.069" height="16.766"/>
	<path fill="#05B2AE" d="M3.722,408.848c0.216,5.689-0.204,11.444-0.847,17.224h608.843v-17.224H3.722z"/>
</g>
<g>
	<path fill="#DADBD7" d="M34.483,446.235c-2.665-2.398-4.957-2.558-5.969-2.558c-1.119,0-2.505,0.16-3.464,1.226
		c-0.533,0.533-0.906,1.332-0.906,2.239c0,0.853,0.266,1.492,0.799,1.972c0.853,0.799,2.079,1.12,4.477,2.025l2.665,1.013
		c1.546,0.586,3.464,1.386,4.85,2.718c2.079,1.972,2.612,4.531,2.612,6.609c0,3.678-1.279,6.876-3.145,8.795
		c-3.145,3.305-7.728,3.624-10.074,3.624c-2.558,0-4.797-0.373-7.035-1.492c-1.812-0.906-3.891-2.558-5.223-3.891l4.264-5.863
		c0.906,0.906,2.345,2.132,3.305,2.718c1.386,0.853,2.825,1.279,4.477,1.279c1.066,0,2.558-0.213,3.731-1.226
		c0.693-0.587,1.279-1.546,1.279-2.878c0-1.173-0.48-1.919-1.226-2.558c-0.959-0.799-3.145-1.599-4.157-1.972l-2.931-1.013
		c-1.652-0.586-3.571-1.332-4.957-2.825c-1.865-1.972-2.132-4.477-2.132-6.183c0-3.145,0.959-5.81,3.091-7.995
		c2.505-2.558,5.49-3.251,8.794-3.251c2.452,0,6.396,0.426,10.553,3.518L34.483,446.235z"/>
	<path fill="#DADBD7" d="M65.236,466.382H51.805l-2.718,6.716h-8.528l14.338-35.551h7.515l14.018,35.551h-8.528L65.236,466.382z
		 M62.998,460.093l-4.371-11.939l-4.424,11.939H62.998z"/>
	<path fill="#DADBD7" d="M80.425,473.098v-35.551h7.142l19.295,22.919v-22.919h8.208v35.551h-7.142l-19.295-23.026v23.026H80.425z"
		/>
	<path fill="#DADBD7" d="M154.99,444.476h-11.513v6.876h10.66v6.929h-10.66v14.817h-8.208v-35.551h19.721V444.476z"/>
	<path fill="#DADBD7" d="M173.484,437.547c4.53,0,7.355,1.492,9.061,3.091c1.492,1.439,3.091,3.997,3.091,7.942
		c0,2.239-0.48,5.01-2.772,7.249c-1.226,1.173-2.985,2.239-4.957,2.718l10.927,14.551h-10.021l-9.594-14.018v14.018h-8.208v-35.551
		H173.484z M169.22,453.697h1.865c1.492,0,3.518-0.16,4.904-1.546c0.586-0.586,1.332-1.706,1.332-3.464
		c0-2.026-0.959-3.092-1.652-3.625c-1.332-1.013-3.464-1.119-4.53-1.119h-1.919L169.22,453.697L169.22,453.697z"/>
	<path fill="#DADBD7" d="M214.843,466.382h-13.432l-2.718,6.716h-8.528l14.338-35.551h7.515l14.018,35.551h-8.528L214.843,466.382z
		 M212.604,460.093l-4.37-11.939l-4.424,11.939H212.604z"/>
	<path fill="#DADBD7" d="M230.032,473.098v-35.551h7.142l19.295,22.919v-22.919h8.208v35.551h-7.142l-19.295-23.026v23.026H230.032z
		"/>
	<path fill="#DADBD7" d="M298.148,471.979c-3.145,1.599-5.703,1.919-7.835,1.919c-6.556,0-10.98-2.239-13.965-5.17
		c-3.198-3.091-5.543-7.782-5.543-13.485c0-5.597,2.345-10.287,5.543-13.378c3.145-3.038,7.728-5.117,13.272-5.117
		c2.345,0,5.063,0.48,8.528,1.972v9.488c-1.812-1.919-4.53-3.785-8.315-3.785c-2.985,0-5.383,0.959-7.249,2.772
		c-1.972,1.919-3.358,4.797-3.358,8.208c0,3.678,1.492,6.289,3.091,7.835c0.746,0.746,3.305,2.985,7.675,2.985
		c2.132,0,5.01-0.587,8.155-3.678L298.148,471.979L298.148,471.979z"/>
	<path fill="#DADBD7" d="M313.071,437.547v35.551h-8.208v-35.551H313.071z"/>
	<path fill="#DADBD7" d="M339.347,446.235c-2.665-2.398-4.957-2.558-5.969-2.558c-1.119,0-2.505,0.16-3.464,1.226
		c-0.533,0.533-0.906,1.332-0.906,2.239c0,0.853,0.267,1.492,0.799,1.972c0.853,0.799,2.079,1.12,4.477,2.025l2.665,1.013
		c1.546,0.586,3.464,1.386,4.85,2.718c2.079,1.972,2.612,4.531,2.612,6.609c0,3.678-1.279,6.876-3.145,8.795
		c-3.145,3.305-7.728,3.624-10.074,3.624c-2.558,0-4.797-0.373-7.035-1.492c-1.812-0.906-3.891-2.558-5.223-3.891l4.264-5.863
		c0.906,0.906,2.345,2.132,3.305,2.718c1.386,0.853,2.825,1.279,4.477,1.279c1.066,0,2.558-0.213,3.731-1.226
		c0.693-0.587,1.279-1.546,1.279-2.878c0-1.173-0.48-1.919-1.226-2.558c-0.959-0.799-3.145-1.599-4.157-1.972l-2.931-1.013
		c-1.652-0.586-3.571-1.332-4.957-2.825c-1.865-1.972-2.132-4.477-2.132-6.183c0-3.145,0.959-5.81,3.091-7.995
		c2.505-2.558,5.49-3.251,8.794-3.251c2.452,0,6.396,0.426,10.553,3.518L339.347,446.235z"/>
	<path fill="#DADBD7" d="M376.017,471.979c-3.145,1.599-5.703,1.919-7.835,1.919c-6.556,0-10.98-2.239-13.965-5.17
		c-3.198-3.091-5.543-7.782-5.543-13.485c0-5.597,2.345-10.287,5.543-13.378c3.145-3.038,7.728-5.117,13.272-5.117
		c2.345,0,5.063,0.48,8.528,1.972v9.488c-1.812-1.919-4.53-3.785-8.315-3.785c-2.985,0-5.383,0.959-7.249,2.772
		c-1.972,1.919-3.358,4.797-3.358,8.208c0,3.678,1.492,6.289,3.091,7.835c0.746,0.746,3.305,2.985,7.675,2.985
		c2.132,0,5.01-0.587,8.155-3.678V471.979z"/>
	<path fill="#DADBD7" d="M414.072,441.917c3.358,3.251,5.543,7.942,5.543,13.432c0,4.744-1.706,9.594-5.543,13.325
		c-3.305,3.198-7.782,5.223-13.751,5.223c-6.662,0-11.193-2.665-13.858-5.223c-3.411-3.198-5.543-7.995-5.543-13.218
		c0-5.117,2.292-10.287,5.49-13.485c2.398-2.398,6.822-5.223,13.911-5.223C405.864,436.747,410.501,438.453,414.072,441.917z
		 M392.486,447.354c-1.546,1.492-3.145,4.104-3.145,8.048c0,3.252,1.066,5.863,3.251,7.995c2.292,2.185,4.851,2.931,7.622,2.931
		c3.624,0,6.183-1.332,7.888-3.038c1.386-1.332,3.091-3.837,3.091-7.942c0-3.678-1.492-6.396-3.091-7.995
		c-1.759-1.706-4.584-3.038-7.835-3.038C397.176,444.316,394.404,445.435,392.486,447.354z"/>
</g>
<g>
	<path fill="#DADBD7" d="M484.023,430.078l-13.401,16.675c1.523-0.533,3.122-0.838,5.33-0.838c6.396,0,10.355,2.589,12.563,4.873
		c1.827,1.904,4.416,5.558,4.416,11.726c0,4.873-1.523,10.051-4.797,13.629c-4.645,5.025-11.117,5.711-15.609,5.711
		c-4.645,0-11.421-0.457-16.447-5.939c-3.35-3.579-4.416-7.843-4.416-12.335c0-8.071,3.807-13.782,8.147-19.492l11.65-15.304
		L484.023,430.078z M478.236,469.976c1.371-1.294,2.665-3.426,2.665-6.7c0-2.97-1.218-4.949-2.665-6.244
		c-1.904-1.675-4.112-2.132-6.091-2.132c-2.284,0-4.416,0.533-6.167,2.208c-0.99,0.914-2.589,2.97-2.589,6.472
		c0,2.36,0.685,4.568,2.589,6.32c1.447,1.371,3.579,2.36,6.167,2.36C475.19,472.261,477.17,470.966,478.236,469.976z"/>
	<path fill="#DADBD7" d="M532.447,476.601c-2.97,2.893-7.386,5.254-13.629,5.254c-6.091,0-10.431-2.284-13.477-5.254
		c-4.949-4.873-7.31-12.563-7.31-21.243c0-8.756,2.36-16.523,7.31-21.32c3.046-2.97,7.386-5.254,13.477-5.254
		c6.244,0,10.66,2.36,13.629,5.254c4.949,4.797,7.31,12.563,7.31,21.32C539.756,464.037,537.396,471.728,532.447,476.601z
		 M514.173,440.738c-3.731,3.655-4.264,10.964-4.264,14.543c0,3.959,0.685,11.117,4.264,14.619c1.371,1.294,2.741,1.904,4.721,1.904
		s3.35-0.609,4.721-1.904c3.579-3.503,4.264-10.66,4.264-14.619c0-3.579-0.533-10.888-4.264-14.543
		c-1.371-1.294-2.741-1.904-4.721-1.904S515.543,439.444,514.173,440.738z"/>
	<path fill="#DADBD7" d="M567.395,450.103c-2.36,2.437-6.015,3.807-10.051,3.807c-4.036,0-7.69-1.371-10.051-3.807
		c-1.294-1.294-3.274-4.035-3.274-8.528s1.98-7.233,3.274-8.528c2.36-2.437,6.015-3.807,10.051-3.807
		c4.035,0,7.69,1.371,10.051,3.807c1.294,1.294,3.274,4.035,3.274,8.528S568.689,448.809,567.395,450.103z M553.004,437.159
		c-0.99,0.99-1.675,2.589-1.675,4.416s0.685,3.426,1.675,4.416c0.838,0.914,2.284,1.751,4.34,1.751c2.056,0,3.503-0.838,4.34-1.751
		c0.99-0.99,1.675-2.589,1.675-4.416s-0.685-3.426-1.675-4.416c-0.838-0.914-2.284-1.751-4.34-1.751
		C555.288,435.408,553.842,436.246,553.004,437.159z M585.593,429.088l5.33,1.142l-29.847,51.548l-5.254-1.218L585.593,429.088z
		 M599.374,477.59c-2.36,2.437-6.015,3.807-10.051,3.807c-4.036,0-7.69-1.371-10.051-3.807c-1.294-1.294-3.274-4.035-3.274-8.528
		s1.98-7.233,3.274-8.528c2.36-2.437,6.015-3.807,10.051-3.807c4.035,0,7.69,1.371,10.051,3.807
		c1.294,1.294,3.274,4.035,3.274,8.528S600.669,476.296,599.374,477.59z M584.984,464.646c-0.99,0.99-1.675,2.589-1.675,4.416
		s0.685,3.426,1.675,4.416c0.838,0.914,2.284,1.751,4.34,1.751c2.056,0,3.503-0.838,4.34-1.751c0.99-0.99,1.675-2.589,1.675-4.416
		s-0.685-3.426-1.675-4.416c-0.838-0.914-2.284-1.751-4.34-1.751C587.268,462.895,585.821,463.733,584.984,464.646z"/>
</g>
</svg>
