<?xml version="1.0" encoding="utf-8"?>
<!-- Generator: Adobe Illustrator 18.1.1, SVG Export Plug-In . SVG Version: 6.00 Build 0)  -->
<svg version="1.1" id="Layer_1" xmlns="http://www.w3.org/2000/svg" xmlns:xlink="http://www.w3.org/1999/xlink" x="0px" y="0px"
	 viewBox="-273.8 540 547.6 1080" enable-background="new -273.8 540 547.6 1080" xml:space="preserve">
<g>
	<g>
		<rect x="-273.8" y="720.4" fill="#DADADA" width="11.9" height="48.6"/>
	</g>
	<g>
		<rect x="-273.8" y="805.7" fill="#DADADA" width="11.9" height="60.5"/>
	</g>
	<g>
		<rect x="-273.8" y="891" fill="#DADADA" width="11.9" height="60.5"/>
	</g>
</g>
<g>
	<path fill="#DADADA" d="M-0.5,1590.8c-27,0-48.6-21.6-48.6-48.6s21.6-48.6,48.6-48.6s48.6,21.6,48.6,48.6S26.5,1590.8-0.5,1590.8z
		 M-0.5,1505.5c-20.5,0-36.7,16.2-36.7,36.7s16.2,36.7,36.7,36.7s36.7-16.2,36.7-36.7S20,1505.5-0.5,1505.5z"/>
</g>
<g>
	<path fill="#DADADA" d="M158.2,1622.2h-316.4c-57.2,0-103.7-46.4-103.7-103.7v-877c0-57.2,46.4-103.7,103.7-103.7h316.4
		c57.2,0,103.7,46.4,103.7,103.7v877C261.9,1575.7,215.5,1622.2,158.2,1622.2z M-158.2,550.8c-49.7,0-91.8,41-91.8,91.8v877
		c0,49.7,41,91.8,91.8,91.8h316.4c49.7,0,91.8-41,91.8-91.8v-877c0-49.7-41-91.8-91.8-91.8H-158.2z"/>
</g>
<g>
	<path fill="#DADADA" d="M237.1,1475.3h-475.2V683.6h475.2V1475.3z M-225.2,1463.4h450.4V696.6h-450.4V1463.4z"/>
</g>
<g>
	<line fill="#DADADA" stroke="#5D5D5D" stroke-miterlimit="10" x1="-30.8" y1="629.6" x2="66.4" y2="629.6"/>
	<line fill="#DADADA" stroke="#5D5D5D" stroke-miterlimit="10" x1="-54.5" y1="629.6" x2="-67.5" y2="629.6"/>
	<line fill="#DADADA" stroke="#5D5D5D" stroke-miterlimit="10" x1="5.9" y1="592.9" x2="-5.9" y2="592.9"/>
</g>
<g>
	<rect x="261.9" y="770" fill="#DADADA" width="11.9" height="85.3"/>
</g>
</svg>
